<svg width="55" height="34" viewBox="0 0 55 34" fill="none" xmlns="http://www.w3.org/2000/svg">
<rect width="55" height="34" rx="14" fill="white" fill-opacity="0.8"/>
<path d="M28.1443 20.0447C28.2628 20.1218 28.3888 20.1855 28.502 20.2427C28.5243 20.254 28.5462 20.2651 28.5674 20.2759L28.5686 20.2765C28.6931 20.3388 28.8018 20.3948 28.897 20.4554L28.9036 20.4595L28.9105 20.463L28.9202 20.4684C28.9251 20.4712 28.9333 20.4759 28.9431 20.4808C29.0645 20.5434 29.1874 20.5752 29.3133 20.5752C29.627 20.5752 29.8268 20.3755 29.8824 20.3199L31.0449 19.1575C31.2071 18.9953 31.3669 18.9248 31.5076 18.9248C31.6818 18.9248 31.8374 19.0345 31.9478 19.1535L31.9478 19.1535L31.9518 19.1575L33.8259 21.0286L33.826 21.0287C33.9935 21.1962 34.0605 21.354 34.0594 21.4991C34.0582 21.6454 33.9875 21.8102 33.8145 21.9904L33.813 21.9919C33.6854 22.1286 33.5511 22.2599 33.4055 22.3993L33.4048 22.4001C33.3925 22.412 33.3801 22.424 33.3678 22.436C33.1632 22.6346 32.9456 22.8458 32.7471 23.0829C32.4202 23.4341 32.0357 23.5978 31.5263 23.5978C31.4786 23.5978 31.4269 23.595 31.3738 23.5919C30.3848 23.5285 29.4588 23.1417 28.7503 22.8045C26.8368 21.8784 25.1569 20.5648 23.7624 18.8965C22.6116 17.5112 21.8412 16.2265 21.3323 14.853L21.3321 14.8525C21.0168 14.0107 20.9022 13.3469 20.9495 12.7514C20.9838 12.3729 21.1272 12.0611 21.4003 11.788L22.5555 10.6327C22.7153 10.4789 22.8783 10.4115 23.0223 10.4115C23.1615 10.4115 23.3178 10.4773 23.4748 10.6371L23.4747 10.6372L23.4799 10.642C23.6577 10.8065 23.8262 10.9778 24.0065 11.1611C24.034 11.1891 24.0618 11.2174 24.09 11.246C24.1432 11.3007 24.197 11.3554 24.2509 11.41L24.2519 11.411C24.3056 11.4655 24.3593 11.52 24.4129 11.5751L24.4129 11.5751L24.4144 11.5766L25.3406 12.5029C25.5176 12.6798 25.5889 12.8397 25.5889 12.978C25.5889 13.1164 25.5176 13.2763 25.3406 13.4532C25.2921 13.5018 25.2436 13.5511 25.1955 13.5998L25.1953 13.6001C25.147 13.6492 25.0993 13.6977 25.0516 13.7454L25.051 13.7459C25.0294 13.7678 25.0079 13.7896 24.9865 13.8112C24.7209 14.0799 24.4723 14.3313 24.2004 14.5721L24.2002 14.5719L24.1937 14.5784L24.1782 14.5939C24.0278 14.7442 23.9565 14.9002 23.9376 15.0535C23.9192 15.2029 23.9527 15.3358 23.9865 15.4374L23.9865 15.4374C23.9895 15.4463 23.9925 15.4537 23.994 15.4576L23.9942 15.4581C23.9959 15.4622 23.9959 15.4623 23.9959 15.4623L23.9955 15.4624L23.9997 15.4725C24.2456 16.0633 24.5863 16.6222 25.1117 17.283L25.1117 17.283L25.1126 17.2841C26.0537 18.4447 27.0474 19.3481 28.1443 20.0447ZM28.1443 20.0447C28.144 20.0446 28.1438 20.0444 28.1435 20.0443L28.2254 19.9186L28.145 20.0452C28.1447 20.045 28.1445 20.0449 28.1443 20.0447ZM22.9412 19.5669L22.9415 19.5672C24.4344 21.3518 26.2322 22.7576 28.2843 23.7523L28.2855 23.7528C29.0629 24.1213 30.1193 24.567 31.3021 24.6435L31.3021 24.6435L31.3053 24.6436L31.3148 24.6441C31.3824 24.647 31.4512 24.65 31.5232 24.65C32.3364 24.65 32.998 24.367 33.5337 23.7863C33.5364 23.7836 33.5408 23.779 33.5455 23.7736C33.5488 23.7697 33.554 23.7634 33.5596 23.7551C33.7205 23.5621 33.9021 23.3859 34.0994 23.1945C34.1135 23.1809 34.1276 23.1671 34.1418 23.1533C34.2885 23.0129 34.4392 22.8653 34.5842 22.7141C34.9375 22.3459 35.1225 21.9183 35.1217 21.4844C35.1208 21.0502 34.9337 20.6273 34.5758 20.2694L32.7088 18.4024C32.3681 18.0489 31.9518 17.8539 31.5076 17.8539C31.0632 17.8539 30.6443 18.049 30.295 18.3983L29.2622 19.4311C29.1892 19.392 29.1169 19.3558 29.0495 19.3221L29.0478 19.3213C28.9233 19.259 28.8146 19.203 28.7193 19.1424L28.7192 19.1423C27.7219 18.5091 26.8138 17.6816 25.9429 16.6139C25.5344 16.0968 25.2549 15.6619 25.0559 15.2288C25.3216 14.9838 25.5718 14.7305 25.812 14.4846L25.8125 14.4841C25.9047 14.3888 26.0002 14.2933 26.0967 14.1968C26.4541 13.8394 26.6566 13.4146 26.6566 12.9718C26.6566 12.5297 26.4577 12.1047 26.0965 11.7466C26.0964 11.7465 26.0963 11.7464 26.0962 11.7463L25.1705 10.8206C25.0654 10.7155 24.9662 10.6134 24.8633 10.5075L24.855 10.4989C24.855 10.4989 24.855 10.4989 24.855 10.4989C24.6501 10.2878 24.4338 10.0684 24.2199 9.87005C23.8759 9.53344 23.464 9.35 23.0223 9.35C22.5829 9.35 22.168 9.53414 21.8123 9.87319L21.8123 9.87316L21.8098 9.8757L20.6473 11.0382C20.1997 11.4857 19.9448 12.0316 19.8921 12.6609L19.8921 12.6615C19.8308 13.4325 19.9737 14.2444 20.333 15.212C20.8839 16.7073 21.7141 18.0926 22.9412 19.5669Z" fill="#184457" stroke="#184457" stroke-width="0.3"/>
</svg>
