<svg width="8" height="10" viewBox="0 0 8 10" fill="none" xmlns="http://www.w3.org/2000/svg">
<path fill-rule="evenodd" clip-rule="evenodd" d="M4 0.833336C2.29471 0.833336 0.857143 2.29495 0.857143 4.16668C0.857143 5.10129 1.27129 6.05895 1.8419 6.92713C2.409 7.78997 3.10519 8.52604 3.61139 9.00864C3.83239 9.21934 4.16761 9.21934 4.38861 9.00864C4.89481 8.52604 5.591 7.78997 6.1581 6.92713C6.72871 6.05895 7.14286 5.10129 7.14286 4.16668C7.14286 2.29495 5.70529 0.833336 4 0.833336ZM0 4.16668C3.40598e-08 1.89626 1.7604 0 4 0C6.2396 0 8 1.89626 8 4.16668C8 5.32837 7.49169 6.44573 6.88038 7.37584C6.26556 8.3113 5.52037 9.0968 4.98874 9.60364C4.43442 10.1321 3.56558 10.1321 3.01126 9.60364C2.47963 9.0968 1.73444 8.3113 1.11962 7.37584C0.50831 6.44573 0 5.32837 0 4.16668ZM4 3.05792C3.52661 3.05792 3.14286 3.43102 3.14286 3.89126C3.14286 4.35149 3.52661 4.72459 4 4.72459C4.47339 4.72459 4.85714 4.35149 4.85714 3.89126C4.85714 3.43102 4.47339 3.05792 4 3.05792ZM2.28571 3.89126C2.28571 2.97078 3.05323 2.22458 4 2.22458C4.94677 2.22458 5.71429 2.97078 5.71429 3.89126C5.71429 4.81173 4.94677 5.55793 4 5.55793C3.05323 5.55793 2.28571 4.81173 2.28571 3.89126Z" fill="white"/>
</svg>
