<svg width="36" height="50" viewBox="0 0 36 50" fill="none" xmlns="http://www.w3.org/2000/svg">
<path d="M32.8026 8.56222C29.7682 3.32551 24.3783 0.12619 18.3847 0.00392456C18.1288 -0.00134888 17.8713 -0.00134888 17.6153 0.00392456C11.6218 0.12619 6.23192 3.32551 3.19735 8.56222C0.0955966 13.915 0.0107335 20.3446 2.9703 25.7617L15.369 48.4558C15.3746 48.4658 15.3802 48.4759 15.3859 48.4858C15.9314 49.434 16.9087 50 18.0002 50C19.0916 50 20.0688 49.4339 20.6142 48.4858C20.62 48.4759 20.6256 48.4658 20.6311 48.4558L33.0299 25.7617C35.9892 20.3446 35.9044 13.915 32.8026 8.56222ZM18 22.6563C14.1229 22.6563 10.9687 19.5021 10.9687 15.625C10.9687 11.748 14.1229 8.59377 18 8.59377C21.877 8.59377 25.0312 11.748 25.0312 15.625C25.0312 19.5021 21.8771 22.6563 18 22.6563Z" fill="#1394CC"/>
</svg>
