<svg width="55" height="34" viewBox="0 0 55 34" fill="none" xmlns="http://www.w3.org/2000/svg">
<path d="M0 14C0 6.26801 6.26801 0 14 0H41C48.732 0 55 6.26801 55 14V20C55 27.732 48.732 34 41 34H14C6.26801 34 0 27.732 0 20V14Z" fill="#184457" fill-opacity="0.1"/>
<path fill-rule="evenodd" clip-rule="evenodd" d="M27.5 10.75C24.9421 10.75 22.7857 12.9424 22.7857 15.75C22.7857 17.1519 23.4069 18.5884 24.2629 19.8907C25.1135 21.185 26.1578 22.2891 26.9171 23.013C27.2486 23.329 27.7514 23.329 28.0829 23.013C28.8422 22.2891 29.8865 21.185 30.7372 19.8907C31.5931 18.5884 32.2143 17.1519 32.2143 15.75C32.2143 12.9424 30.0579 10.75 27.5 10.75ZM21.5 15.75C21.5 12.3444 24.1406 9.5 27.5 9.5C30.8594 9.5 33.5 12.3444 33.5 15.75C33.5 17.4926 32.7375 19.1686 31.8206 20.5638C30.8983 21.9669 29.7806 23.1452 28.9831 23.9055C28.1516 24.6982 26.8484 24.6982 26.0169 23.9055C25.2194 23.1452 24.1017 21.9669 23.1794 20.5638C22.2625 19.1686 21.5 17.4926 21.5 15.75ZM27.5 14.0869C26.7899 14.0869 26.2143 14.6465 26.2143 15.3369C26.2143 16.0272 26.7899 16.5869 27.5 16.5869C28.2101 16.5869 28.7857 16.0272 28.7857 15.3369C28.7857 14.6465 28.2101 14.0869 27.5 14.0869ZM24.9286 15.3369C24.9286 13.9562 26.0798 12.8369 27.5 12.8369C28.9202 12.8369 30.0714 13.9562 30.0714 15.3369C30.0714 16.7176 28.9202 17.8369 27.5 17.8369C26.0798 17.8369 24.9286 16.7176 24.9286 15.3369Z" fill="#184457"/>
</svg>
