<svg width="8" height="10" viewBox="0 0 8 10" fill="none" xmlns="http://www.w3.org/2000/svg">
<path fill-rule="evenodd" clip-rule="evenodd" d="M0.210008 1.72631C0.155763 2.69715 0.920001 3.4961 1.87627 3.4961C2.74564 3.4961 3.4654 2.82967 3.53986 1.97258H3.99542C4.15723 1.97258 4.28846 1.84136 4.28846 1.67961C4.28846 1.51779 4.15723 1.38665 3.99542 1.38665H3.5462V0.859377C3.5462 0.374909 3.15176 -0.0195312 2.66729 -0.0195312H1.08518C0.600709 -0.0195312 0.206269 0.374986 0.206269 0.859377C0.206269 1.08063 0.210008 1.50872 0.210008 1.72631ZM2.3084 5.51629C2.19465 5.40185 2.00971 5.40132 1.89527 5.51507C1.7809 5.6289 1.78037 5.81384 1.89412 5.92828L2.96026 7.00189V9.68752C2.96026 9.84926 3.09141 9.98049 3.25323 9.98049C3.41505 9.98049 3.5462 9.84926 3.5462 9.68752V7.59203C3.7177 7.76468 3.81216 7.88065 4.05821 7.95633C4.1818 7.99432 4.30731 8.00791 4.4296 8.00791H6.89062C7.37463 8.00791 7.76953 7.61301 7.76953 7.129C7.76953 6.64499 7.37463 6.25009 6.89062 6.25009H4.69213L3.11704 4.63723C2.96262 4.46557 2.77273 4.32572 2.55895 4.22921C1.45589 3.73139 0.206269 4.54888 0.206269 5.75196V9.68752C0.206269 9.84926 0.337419 9.98049 0.499238 9.98049C0.661058 9.98049 0.792208 9.84926 0.792208 9.68752V5.75196C0.792208 4.96865 1.60825 4.44192 2.31862 4.76251C2.52065 4.85375 2.56284 4.93043 2.71421 5.06112L4.34576 6.73173C4.39947 6.79552 4.47996 6.83603 4.56991 6.83603H6.89062C7.1459 6.83603 7.28438 7.1486 7.0973 7.33568C7.04405 7.38893 6.97088 7.42197 6.89062 7.42197H4.4296C4.31265 7.42197 4.18623 7.40732 4.10513 7.32568L2.3084 5.51629ZM5.61659 3.57415V3.68684C5.61659 3.84866 5.74774 3.97981 5.90956 3.97981C6.07138 3.97981 6.20253 3.84866 6.20253 3.68684V3.57415H6.67128V5.07814H5.14784V3.57415H5.61659ZM6.96432 2.98821C7.12607 2.98821 7.25729 3.11944 7.25729 3.28118V5.3711C7.25729 5.53292 7.12607 5.66407 6.96432 5.66407H4.85487C4.69305 5.66407 4.5619 5.53292 4.5619 5.3711V3.28118C4.5619 3.11944 4.69305 2.98821 4.85487 2.98821H6.96432ZM2.95042 1.97258C2.87847 2.50535 2.422 2.91009 1.87619 2.91009C1.33046 2.91009 0.873995 2.50535 0.80205 1.97258H2.95042ZM1.08518 0.566407H2.66729C2.82827 0.566407 2.96026 0.698396 2.96026 0.859377V1.38665H0.792208V0.859377C0.792208 0.698396 0.924197 0.566407 1.08518 0.566407Z" fill="white"/>
</svg>
