<svg width="59" height="59" viewBox="0 0 59 59" fill="none" xmlns="http://www.w3.org/2000/svg">
<g clip-path="url(#clip0)">
<path d="M25.0146 16.668L27.8706 13.7399C28.696 12.8907 28.696 11.5384 27.8706 10.6887C27.4763 10.285 26.936 10.0575 26.3718 10.0575C25.8077 10.0575 25.2673 10.285 24.873 10.6887L27.8706 7.6375C28.6975 6.78828 28.6975 5.43549 27.8706 4.58627C27.4763 4.18252 26.936 3.95507 26.3718 3.95507C25.8077 3.95507 25.2673 4.18252 24.873 4.58627L23.3688 6.11188V2.04359C23.3852 1.31902 23.0082 0.642626 22.383 0.275129C21.7582 -0.0918723 20.9835 -0.0918723 20.3588 0.275129C19.7335 0.642626 19.3566 1.31902 19.373 2.04359V6.11188L17.8796 4.59124C17.4843 4.186 16.942 3.95755 16.3759 3.95755C15.8097 3.95755 15.2674 4.186 14.8721 4.59124C14.0448 5.43847 14.0393 6.78927 14.8602 7.64246L17.5514 10.4225C16.7101 9.85241 15.5813 9.96763 14.8721 10.6947C14.5722 11.0016 14.371 11.3914 14.2956 11.8136C14.16 12.5093 14.37 13.2274 14.8592 13.7399L18.3028 17.2997C18.1553 17.1492 17.9978 16.9873 17.8419 16.8239C17.4545 16.4172 16.9187 16.1853 16.357 16.1818C15.7953 16.1783 15.2565 16.4038 14.8642 16.8056C14.0438 17.6444 14.0438 18.9852 14.8642 19.824L21.421 26.4534L27.8706 19.8424C28.696 18.9932 28.696 17.6409 27.8706 16.7912C27.0999 16.0035 25.8499 15.9494 25.0146 16.668Z" fill="#70942D"/>
<path d="M24.4196 11.1973H35.6074V42.7266H24.4196V11.1973Z" fill="#63A6D3"/>
<path d="M35.6074 42.7266H45.7782V11.1973L40.6928 6.11194L35.6074 11.1973V42.7266Z" fill="#4092C9"/>
<path d="M24.4196 11.1973L29.5049 6.11194H40.6927L35.6074 11.1973H24.4196Z" fill="#579FD0"/>
<path d="M29.505 2.04358H40.6928V6.11188H29.505V2.04358Z" fill="#D6D9DB"/>
<path d="M24.4196 30.0131V42.7266H35.6074V18.8253L24.4196 30.0131Z" fill="#579FD0"/>
<path d="M51.3627 0.00939941C53.2319 0.0431695 54.9666 0.988234 56.008 2.54116C57.049 4.09359 57.2655 6.05722 56.5876 7.79935L45.9927 36.0018C45.1882 38.1964 43.1054 39.6609 40.7678 39.6753C38.899 39.6415 37.1644 38.6965 36.1229 37.144C35.0815 35.5911 34.865 33.6275 35.5434 31.8853L46.1373 3.68289C46.9423 1.48833 49.0251 0.0242979 51.3627 0.00939941Z" fill="#D68033"/>
<path d="M35.5434 31.8854C34.865 33.6275 35.0815 35.5911 36.1229 37.1441C37.1644 38.6965 38.899 39.6416 40.7678 39.6753C43.1054 39.6609 45.1882 38.1964 45.9928 36.0018L52.866 17.7064C48.6844 20.9106 43.7684 23.0192 38.5648 23.8416L35.5434 31.8854Z" fill="#D17726"/>
<path d="M47.7919 8.4604L49.7263 7.83069L51.7127 13.9336L49.7784 14.5628L47.7919 8.4604Z" fill="#C96E23"/>
<path d="M44.8107 15.5809L46.7446 14.9512L48.7315 21.0536L46.7977 21.6833L44.8107 15.5809Z" fill="#C96E23"/>
<path d="M10.6052 9.63839L12.4039 8.68787L16.1653 15.8079L14.3666 16.7579L10.6052 9.63839Z" fill="#88B337"/>
<path d="M7.46454 12.6722L8.82875 11.1635L14.592 16.376L13.2273 17.8847L7.46454 12.6722Z" fill="#88B337"/>
<path d="M28.028 38.626C27.1376 39.219 25.9412 39.0323 25.2738 38.1955L12.5604 22.2406C11.727 21.2598 11.3491 19.9716 11.5209 18.6957C11.6928 17.4204 12.398 16.2777 13.4617 15.5526C14.5235 14.835 15.843 14.6106 17.0826 14.9363C18.3221 15.2621 19.3606 16.1069 19.9322 17.2541L28.7511 36.0352C29.1852 36.9584 28.8782 38.0604 28.029 38.626H28.028Z" fill="#FF7230"/>
<path d="M16.2035 19.8181L12.7545 22.486L14.0219 24.0766L17.4486 21.4272L16.2035 19.8181Z" fill="#DE5718"/>
<path d="M19.0015 24.0458L15.9219 26.4603L17.1903 28.0525L20.2574 25.6479L19.0015 24.0458Z" fill="#DE5718"/>
<path d="M33.5732 24.9277C33.5732 28.0171 31.0688 30.5216 27.9793 30.5216C24.8899 30.5216 22.3854 28.0171 22.3854 24.9277C22.3854 21.8382 24.8899 19.3337 27.9793 19.3337C31.0688 19.3337 33.5732 21.8382 33.5732 24.9277Z" fill="#FF9B30"/>
<path d="M30.5046 19.9442C30.966 22.0419 30.3457 24.231 28.8524 25.775C27.3596 27.319 25.1918 28.0123 23.0802 27.6209C24.2333 29.7341 26.6092 30.8723 28.9785 30.4467C31.3484 30.0216 33.1799 28.1275 33.5261 25.7452C33.8722 23.3629 32.655 21.0263 30.5046 19.9442Z" fill="#F28E22"/>
<path d="M38.6586 24.4192L35.6074 26.4533L32.5562 24.4192L29.505 26.4533L26.4537 24.4192L23.4025 26.4533L20.3513 24.4192L17.3001 26.4533L14.2488 24.4192V54.9314C14.2488 57.1781 16.0699 58.9997 18.3171 58.9997H41.7098V26.4533L38.6586 24.4192Z" fill="#F0AE62"/>
<path d="M47.8123 26.4533L44.7611 24.4192L41.7098 26.4533V58.9997H46.7952C49.0419 58.9997 50.8635 57.1781 50.8635 54.9314V24.4192L47.8123 26.4533Z" fill="#E6994E"/>
<path d="M18.2873 57.0247L18.6424 56.3125C19.7658 54.0658 20.3508 51.5882 20.3513 49.0763C20.3592 47.6063 19.6143 46.2342 18.3767 45.4406C17.1392 44.6465 15.5818 44.5412 14.2488 45.1615V54.9314C14.2498 56.531 15.1899 57.9807 16.65 58.6347C17.3587 58.293 17.9342 57.7274 18.2873 57.0247Z" fill="#EDA047"/>
<path d="M11.1976 47.812H9.16348V43.7437C9.16348 42.6204 8.25268 41.7096 7.12933 41.7096V39.6754C9.37603 39.6754 11.1976 41.497 11.1976 43.7437V47.812Z" fill="#965735"/>
<path d="M13.0579 58.9998C12.5032 58.9998 11.9559 58.8707 11.4598 58.6224L10.1805 57.9827L8.90075 58.6224C8.40463 58.8707 7.85785 58.9998 7.30313 58.9998C5.94985 58.9998 4.71277 58.235 4.10739 57.0248L3.75231 56.3126C2.62896 54.0659 2.04395 51.5883 2.04395 49.0764C2.04345 46.6926 3.97579 44.7602 6.35906 44.7607C7.50377 44.7607 8.60129 45.2156 9.41028 46.0251L10.1805 46.7949L10.9503 46.0251C11.7598 45.2156 12.8573 44.7607 14.0015 44.7607C16.3853 44.7602 18.3176 46.6926 18.3171 49.0764C18.3171 51.5893 17.7321 54.0679 16.6083 56.3156L16.2532 57.0277C15.6473 58.237 14.4102 59.0003 13.0579 58.9998Z" fill="#E3584B"/>
<path d="M16.352 45.4635C13.9539 52.3705 7.59218 55.8215 4.21716 57.211C5.15676 58.8494 7.21227 59.4691 8.90077 58.6224L10.1806 57.9828L11.4598 58.6224C13.2248 59.5054 15.3712 58.7903 16.2532 57.0248L16.6083 56.3126C17.7316 54.0659 18.3166 51.5883 18.3171 49.0764C18.3166 47.6168 17.5767 46.2571 16.352 45.4635Z" fill="#D64740"/>
</g>
<path fill-rule="evenodd" clip-rule="evenodd" d="M30.4697 33.2197C30.1768 33.5126 30.1768 33.9874 30.4697 34.2803L32.4393 36.25H28.75C25.5744 36.25 23 38.8244 23 42V42.25C23 42.6642 23.3358 43 23.75 43C24.1642 43 24.5 42.6642 24.5 42.25V42C24.5 39.6528 26.4028 37.75 28.75 37.75H32.4393L30.4697 39.7197C30.1768 40.0126 30.1768 40.4874 30.4697 40.7803C30.7626 41.0732 31.2374 41.0732 31.5303 40.7803L34.7803 37.5303C35.0732 37.2374 35.0732 36.7626 34.7803 36.4697L31.5303 33.2197C31.2374 32.9268 30.7626 32.9268 30.4697 33.2197Z" fill="white"/>
<defs>
<clipPath id="clip0">
<rect width="59" height="59" fill="white"/>
</clipPath>
</defs>
</svg>
