<svg width="13" height="10" viewBox="0 0 13 10" fill="none" xmlns="http://www.w3.org/2000/svg">
<path fill-rule="evenodd" clip-rule="evenodd" d="M8.13105 0.21967C7.83815 0.512563 7.83815 0.987437 8.13105 1.28033L10.1007 3.25L6.41137 3.25C3.23574 3.25 0.661372 5.82436 0.661372 9V9.25C0.661372 9.66422 0.997159 10 1.41137 10C1.82559 10 2.16137 9.66422 2.16137 9.25V9C2.16137 6.65279 4.06416 4.75 6.41137 4.75H10.1007L8.13105 6.71967C7.83815 7.01257 7.83815 7.48744 8.13105 7.78033C8.42394 8.07323 8.89881 8.07323 9.19171 7.78033L12.4417 4.53033C12.7346 4.23744 12.7346 3.76256 12.4417 3.46967L9.19171 0.21967C8.89881 -0.0732233 8.42394 -0.0732234 8.13105 0.21967Z" fill="#0DAF4C"/>
</svg>
