<svg width="55" height="34" viewBox="0 0 55 34" fill="none" xmlns="http://www.w3.org/2000/svg">
<path d="M0 14C0 6.26801 6.26801 0 14 0H41C48.732 0 55 6.26801 55 14V20C55 27.732 48.732 34 41 34H14C6.26801 34 0 27.732 0 20V14Z" fill="#184457" fill-opacity="0.1"/>
<path fill-rule="evenodd" clip-rule="evenodd" d="M26.0303 12.2197C26.3232 12.5126 26.3232 12.9874 26.0303 13.2803L24.0607 15.25H27.75C30.9256 15.25 33.5 17.8244 33.5 21V21.25C33.5 21.6642 33.1642 22 32.75 22C32.3358 22 32 21.6642 32 21.25V21C32 18.6528 30.0972 16.75 27.75 16.75H24.0607L26.0303 18.7197C26.3232 19.0126 26.3232 19.4874 26.0303 19.7803C25.7374 20.0732 25.2626 20.0732 24.9697 19.7803L21.7197 16.5303C21.4268 16.2374 21.4268 15.7626 21.7197 15.4697L24.9697 12.2197C25.2626 11.9268 25.7374 11.9268 26.0303 12.2197Z" fill="#184457"/>
</svg>
