<svg width="375" height="339" viewBox="0 0 375 339" fill="none" xmlns="http://www.w3.org/2000/svg">
<path d="M-104.185 -5.08961e-05L384.752 -8.15195e-06C414.26 89.1237 437.349 183.461 465.521 277.798C468.388 286.168 471.04 295.069 473.459 304.436C475.08 308.862 476.596 313.565 477.999 318.516C442.251 355.62 404.777 320.343 367.302 306.187C341.957 299.733 316.469 298.563 291.058 302.686C210.943 316.804 130.828 376.816 52.0075 302.686C30.0325 281.489 14.533 228.517 -0.980332 182.624C-15.1986 143.77 -35.8646 133.153 -55.2911 129.652C-59.1765 129.652 -61.7527 126.113 -65.638 122.574L-72.0857 122.574C-87.5991 115.533 -103.112 104.916 -112.15 66.0625C-117.01 42.659 -111.579 16.2873 -104.185 -5.08961e-05Z" fill="#1394CC" fill-opacity="0.4"/>
<path d="M318.005 259.802C320.301 256.007 319.233 250.801 317.167 246.803C315.037 242.683 311.968 239.067 310.535 234.622C307.594 225.494 312.006 214.488 307.338 206.216C304.984 202.051 300.745 199.483 298.11 195.51C293.154 188.03 295.034 177.893 294.503 168.746C293.473 151.007 281.534 134.547 265.687 129.021C258.601 126.556 250.614 125.942 244.878 120.864C238.131 114.885 236.532 104.48 230.988 97.23C225.232 89.667 215 86.3326 206.226 89.1432C197.452 91.9538 190.68 100.737 189.772 110.452C183.954 108.008 177.616 107.059 171.337 107.692C165.057 108.324 159.037 110.519 153.825 114.074C143.312 121.286 136.392 134.131 135.842 147.45C135.542 154.744 137.032 161.994 137.032 169.295C137.032 176.596 135.196 184.491 129.78 188.963C126.499 191.677 122.329 192.795 118.614 194.756C108.017 200.358 101.744 212.75 99.8893 225.206C98.1754 236.659 99.6335 248.323 101.341 259.802H318.005Z" fill="#A7E4FF"/>
<path d="M227.501 87.7379H158.301V182.326H227.501V87.7379Z" fill="#2E110D"/>
<path d="M226.511 87.5399H157.31V182.128H226.511V87.5399Z" fill="#44B4E4"/>
<path d="M190.181 90.7784H159.938V148.701H190.181V90.7784Z" fill="#A7E4FF"/>
<path d="M223.901 90.7018H193.659V148.625H223.901V90.7018Z" fill="#A7E4FF"/>
<path d="M190.181 151.544H159.938V177.816H190.181V151.544Z" fill="#A7E4FF"/>
<path d="M223.85 151.544H193.607V177.816H223.85V151.544Z" fill="#A7E4FF"/>
<path d="M313.15 88.134H234.817V258.824H313.15V88.134Z" fill="#44B4E4"/>
<path d="M308.398 94.0617H239.575V258.824H308.398V94.0617Z" fill="#2E110D"/>
<path d="M278.827 115.103C288.165 108.2 298.053 102.073 308.392 96.7828V94.0617L239.575 103.247V258.824H257.513C257.609 210.444 253.996 157.951 278.827 115.103Z" fill="#44B4E4"/>
<path d="M308.392 96.7828C298.053 102.073 288.165 108.2 278.828 115.103C253.996 157.951 257.609 210.444 257.513 258.824H308.392V96.7828Z" fill="#A7E4FF"/>
<path d="M247.799 158.558H245.663C244.134 158.558 242.894 159.796 242.894 161.323V181.342C242.894 182.87 244.134 184.108 245.663 184.108H247.799C249.328 184.108 250.568 182.87 250.568 181.342V161.323C250.568 159.796 249.328 158.558 247.799 158.558Z" fill="#E0EFFC"/>
<path d="M248.86 162.71C248.86 163.11 248.741 163.502 248.518 163.835C248.296 164.168 247.979 164.427 247.609 164.58C247.238 164.734 246.831 164.774 246.437 164.696C246.044 164.617 245.683 164.425 245.399 164.141C245.116 163.858 244.923 163.497 244.845 163.105C244.766 162.712 244.807 162.305 244.96 161.935C245.113 161.565 245.373 161.248 245.707 161.026C246.04 160.803 246.432 160.685 246.833 160.685C247.099 160.684 247.363 160.736 247.61 160.837C247.856 160.939 248.08 161.088 248.268 161.276C248.457 161.464 248.606 161.688 248.708 161.934C248.809 162.18 248.861 162.443 248.86 162.71Z" fill="#2E110D"/>
<path d="M248.01 178.57C248.011 178.803 247.943 179.031 247.815 179.225C247.686 179.419 247.503 179.571 247.288 179.66C247.073 179.75 246.836 179.775 246.608 179.73C246.379 179.685 246.169 179.574 246.004 179.41C245.838 179.246 245.726 179.036 245.68 178.808C245.634 178.58 245.657 178.343 245.746 178.128C245.835 177.913 245.985 177.729 246.179 177.6C246.373 177.47 246.6 177.401 246.833 177.401C247.144 177.401 247.443 177.524 247.663 177.743C247.884 177.962 248.008 178.259 248.01 178.57Z" fill="#2E110D"/>
<path d="M256.758 161.004H247.14C246.617 161.004 246.193 161.427 246.193 161.949V161.975C246.193 162.497 246.617 162.92 247.14 162.92H256.758C257.281 162.92 257.704 162.497 257.704 161.975V161.949C257.704 161.427 257.281 161.004 256.758 161.004Z" fill="#E0EFFC"/>
<path d="M181.234 162.409C181.231 162.362 181.22 162.316 181.199 162.274C181.179 162.231 181.151 162.193 181.116 162.162C181.081 162.13 181.04 162.106 180.995 162.091C180.951 162.075 180.904 162.068 180.857 162.071C180.666 162.088 180.485 162.164 180.339 162.288C179.925 162.665 179.434 162.949 178.9 163.118C178.37 163.117 177.84 163.145 177.314 163.201L178.925 161.643C179.072 161.502 179.226 161.336 179.2 161.145C178.256 161.132 177.342 161.476 176.642 162.109C176.488 162.283 176.301 162.424 176.092 162.524C175.924 162.57 175.749 162.587 175.574 162.575C174.843 162.596 174.113 162.499 173.413 162.288C172.756 162.001 172.128 161.65 171.539 161.24C170.9 160.87 170.126 160.257 169.518 160.64C169.216 160.817 168.888 160.946 168.546 161.023C160.488 161.208 154.477 159.995 146.803 157.453C147.909 149.379 150.416 145.316 149.674 137.881C149.54 136.603 149.674 134.451 146.048 131.206C145.375 130.704 144.542 130.464 143.705 130.532C142.868 130.6 142.084 130.972 141.502 131.576C140.485 132.796 139.583 135.767 139.276 137.325C137.287 147.053 136.718 156.341 134.704 166.069C155.615 170.72 158.148 166.842 169.806 165.935L169.761 165.852C170.534 166.252 171.263 166.731 171.936 167.283C172.197 167.534 172.503 167.736 172.837 167.877C173.005 167.943 173.19 167.955 173.365 167.912C173.541 167.868 173.698 167.771 173.816 167.634C173.867 167.551 173.912 167.456 174.001 167.424C174.083 167.416 174.165 167.432 174.238 167.468C174.568 167.548 174.912 167.548 175.242 167.468L177.109 167.232C177.327 167.217 177.543 167.172 177.749 167.098C177.956 167.006 178.15 166.885 178.324 166.74L179.507 165.852C179.757 165.661 180.038 165.367 179.91 165.079C179.711 165.168 179.524 165.282 179.354 165.418C179.947 164.816 180.5 164.176 181.01 163.502C180.981 163.415 180.919 163.343 180.838 163.3C180.758 163.257 180.663 163.247 180.575 163.272C180.4 163.326 180.243 163.428 180.121 163.566L179.43 164.204L181.016 162.678C181.118 162.616 181.195 162.521 181.234 162.409Z" fill="#EFB784"/>
<path d="M146.842 157.427C147.948 149.353 150.455 145.29 149.713 137.855C149.579 136.578 149.713 134.425 146.087 131.18C145.414 130.678 144.581 130.438 143.743 130.507C142.906 130.575 142.123 130.946 141.54 131.551C140.523 132.771 139.622 135.741 139.315 137.3C137.326 147.028 136.757 156.316 134.742 166.044C141.732 167.883 148.97 168.594 156.185 168.152C155.475 165.233 154.682 162.333 153.761 159.439C151.542 158.903 149.278 158.232 146.842 157.427Z" fill="#2E110D"/>
<path d="M127.497 181.087C125.444 183.993 124.939 187.749 125.233 191.307C125.527 194.865 126.512 198.301 127.151 201.795C128.43 208.477 128.814 211.441 128.891 218.244C128.936 222.376 128.891 224.804 127.714 228.764C126.435 232.961 124.625 235.957 122.266 239.623C117.738 246.713 113.818 257.176 107.96 265.755C110.652 267.448 115.896 270.45 118.589 272.142C126.608 260.581 134.135 246.413 142.154 234.858C143.977 232.226 145.831 229.537 146.631 226.452C147.545 223.073 147.155 219.502 146.919 216.008C145.998 202.562 147.117 192.834 150.794 179.867H134.288L127.497 181.087Z" fill="#2E110D"/>
<path d="M112.392 282.075C113.562 283.781 115.64 284.675 117.693 284.879C119.759 284.983 121.829 284.787 123.839 284.298C124.67 282.695 123.666 280.721 122.342 279.488C121.019 278.255 119.35 277.38 118.307 275.905C116.28 273.056 117.361 268.91 119.682 266.323L115.845 263.174C112.629 265.062 109.721 267.432 107.225 270.201C108.882 272.14 110.071 274.435 110.697 276.908C111.196 278.645 111.375 280.561 112.392 282.075Z" fill="#2E110D"/>
<path d="M147.014 278.37C146.547 280.925 148.408 283.481 150.697 284.726C152.157 285.376 153.72 285.765 155.315 285.876C156.894 286.099 158.512 286.4 159.791 287.345C161.07 288.29 161.908 290.041 161.294 291.51C153.581 292.244 145.829 292.468 138.086 292.18C137.626 289.408 138.195 286.585 138.624 283.806C139.052 281.028 139.346 278.109 138.374 275.47C141.073 275.822 144.392 274.5 147.103 274.27L147.014 278.37Z" fill="#2E110D"/>
<path d="M125.936 177.944C123.493 187.002 126.333 196.424 128.437 205.539C134.192 230.45 133.425 255.011 133.713 280.459C138.419 281.334 142.749 280.619 148.99 280.459C146.925 246.023 150.327 209.346 151.018 174.865C143.409 176.286 135.563 175.73 128.232 173.249L125.936 177.944Z" fill="#A85642"/>
<path d="M135.414 207.877C134.697 197.465 133.981 185.903 135.97 175.121C133.339 174.732 130.749 174.106 128.232 173.249L125.936 177.944C123.493 187.002 126.333 196.424 128.437 205.539C134.192 230.45 133.425 255.011 133.713 280.459C135.439 280.764 137.191 280.907 138.944 280.887C139.539 256.704 136.475 232.175 135.414 207.877Z" fill="#2E110D"/>
<path d="M137.971 280.402H137.332C137.466 264.637 136.053 245.072 134.806 227.8C133.412 208.496 132.094 190.266 133.162 180.831L133.802 180.908C132.734 190.279 134.051 208.483 135.439 227.755C136.692 245.027 138.093 264.611 137.971 280.402Z" fill="#EA6F23"/>
<path d="M151.017 174.865C146.051 175.79 140.965 175.876 135.97 175.121C133.981 185.903 134.691 197.477 135.413 207.877C136.475 232.15 139.538 256.704 138.943 280.887C141.917 280.887 145.083 280.561 148.99 280.459C146.924 246.023 150.326 209.346 151.017 174.865Z" fill="#A85642"/>
<path d="M139.001 128.689C140.677 129.123 143.938 129.577 145.166 130.829C146.698 132.631 147.93 134.667 148.817 136.859C150.576 142.109 149.08 146.983 150.25 152.406C152.348 162.078 153.378 171.951 153.32 181.847C153.322 181.922 153.301 181.996 153.26 182.059C153.219 182.122 153.159 182.171 153.089 182.198C152.296 182.486 151.056 184.287 150.365 184.23C141.412 183.457 132.855 183.354 123.851 183.399C123.109 183.399 122.24 182.039 121.472 181.726C121.39 181.69 121.323 181.626 121.286 181.544C121.248 181.463 121.241 181.371 121.268 181.285C123.622 172.734 123.791 163.729 121.76 155.096C120.654 150.426 118.914 145.916 118.051 141.19C117.542 138.572 117.435 135.893 117.731 133.243C118.198 129.609 120.82 126.172 124.356 126.153C129.14 126.121 134.345 127.482 139.001 128.689Z" fill="#EA6F23"/>
<path d="M138.067 143.668C138.067 144.799 136.788 145.968 135.234 146.274C133.68 146.581 132.395 145.916 132.395 144.786C132.395 143.655 133.674 142.493 135.222 142.186C136.769 141.88 138.061 142.544 138.067 143.668Z" fill="#FFFDEE"/>
<path d="M122.803 148.657C122.803 147.252 123.295 145.872 123.251 144.467C123.187 142.295 121.92 140.366 121.127 138.341C120.531 136.93 120.283 135.396 120.405 133.869C120.469 133.106 120.688 132.363 121.049 131.687C121.409 131.01 121.904 130.414 122.502 129.935C124.421 128.485 127.343 128.81 129.23 130.324C130.138 131.127 130.87 132.109 131.38 133.209C131.889 134.308 132.165 135.501 132.191 136.712C132.227 139.133 131.828 141.541 131.014 143.821C130.211 146.094 129.545 148.413 129.019 150.765C127.836 157.306 130.106 164.23 134.41 169.289C137.678 173.121 142.244 176.379 143.363 181.317L125.802 181.17C127.049 180.148 128.418 178.889 128.36 177.273C128.303 175.657 126.8 174.373 126.045 172.866C124.926 170.649 125.546 168.011 125.815 165.539C126.209 161.867 125.758 158.153 124.498 154.68C123.775 152.7 122.79 150.752 122.803 148.657Z" fill="#2E110D"/>
<path d="M152.207 166.817H118.281V181.981H152.207V166.817Z" fill="#0071A2"/>
<path d="M127.906 166.817H118.281V173.128C122.572 176.322 127.995 178.826 132.523 181.981H141.073C135.414 178.053 130.361 173.664 127.906 166.817Z" fill="#2E110D"/>
<path d="M129.645 174.782H119.784V180.333H129.645V174.782Z" fill="#FFFDEE"/>
<path d="M152.207 166.817H118.281V169.289H152.207V166.817Z" fill="#2E110D"/>
<path d="M146.426 149.5H112.5V167.296H146.426V149.5Z" fill="#1394CC"/>
<path d="M126.87 149.5H112.5V167.296H135.28C129.262 162.084 124.095 156.648 126.87 149.5Z" fill="#0071A2"/>
<path d="M144.731 245.436C144.708 245.441 144.684 245.441 144.661 245.436C144.602 245.417 144.552 245.375 144.522 245.321C144.492 245.266 144.485 245.202 144.501 245.142L146.726 237.854C146.732 237.819 146.745 237.787 146.764 237.758C146.783 237.729 146.808 237.705 146.838 237.686C146.867 237.668 146.9 237.656 146.935 237.652C146.969 237.647 147.004 237.65 147.037 237.66C147.071 237.67 147.101 237.687 147.127 237.71C147.153 237.733 147.174 237.761 147.188 237.793C147.202 237.825 147.21 237.859 147.209 237.894C147.209 237.928 147.201 237.963 147.187 237.994L144.961 245.257C144.948 245.308 144.918 245.352 144.876 245.385C144.835 245.417 144.784 245.435 144.731 245.436Z" fill="#2E110D"/>
<path d="M146.106 249.894H146.048C145.986 249.878 145.933 249.838 145.9 249.783C145.866 249.729 145.855 249.663 145.869 249.601L146.464 247.231C146.48 247.169 146.52 247.117 146.575 247.084C146.631 247.052 146.696 247.043 146.758 247.058C146.788 247.066 146.817 247.079 146.842 247.098C146.867 247.116 146.888 247.139 146.904 247.166C146.92 247.193 146.931 247.222 146.935 247.253C146.94 247.284 146.938 247.316 146.931 247.346L146.336 249.716C146.323 249.767 146.293 249.812 146.252 249.845C146.21 249.877 146.159 249.895 146.106 249.894Z" fill="#2E110D"/>
<path d="M139.922 128.747C139.491 126.14 139.317 123.498 139.404 120.858C138.346 120.663 137.306 120.379 136.296 120.008C134.562 119.334 132.883 118.524 131.276 117.587C130.803 121.292 130.745 123.924 128.5 126.837C128.339 126.844 128.183 126.896 128.048 126.986C127.914 127.076 127.807 127.201 127.739 127.348C127.599 127.763 127.957 128.159 128.283 128.446C131.289 131.04 134.844 133.135 138.752 133.837C139.489 134.007 140.252 134.025 140.996 133.889C141.367 133.815 141.716 133.656 142.014 133.424C142.313 133.192 142.553 132.894 142.717 132.554C142.86 132.111 142.877 131.636 142.764 131.184C142.651 130.733 142.413 130.322 142.077 129.999C141.459 129.429 140.723 129.002 139.922 128.747Z" fill="#FAD1A5"/>
<path d="M139.404 120.858C138.346 120.663 137.306 120.379 136.296 120.008C134.889 119.466 133.521 118.825 132.203 118.092C133.034 121.969 135.938 124.518 139.513 125.508C139.404 124.001 139.398 122.506 139.404 120.858Z" fill="#2E110D"/>
<path d="M135.733 120.896C137.172 121.595 138.69 122.116 140.255 122.448L143.727 121.337C144.047 118.884 143.938 117.408 144.367 114.758C144.471 113.71 144.285 112.654 143.829 111.704C143.561 111.357 143.345 110.972 143.19 110.561C143.162 110.139 143.241 109.717 143.42 109.335C143.819 108.14 143.769 106.841 143.279 105.681C142.797 104.582 141.937 103.692 140.856 103.17C139.193 102.385 137.223 102.57 135.471 103.107C133.15 103.809 130.937 105.163 129.716 107.246C129.047 108.486 128.694 109.872 128.686 111.28C128.678 112.689 129.016 114.078 129.671 115.326C131.011 117.808 133.146 119.769 135.733 120.896Z" fill="#FAD1A5"/>
<path d="M145.415 150.496H139.858V156.047H145.415V150.496Z" fill="#FFFDEE"/>
<path d="M148.14 181.994C148.042 181.775 148.032 181.526 148.113 181.3C148.194 181.074 148.36 180.888 148.575 180.78C148.984 180.531 149.483 180.467 149.918 180.256C150.144 180.175 150.335 180.02 150.461 179.816C150.586 179.611 150.638 179.37 150.608 179.132C150.351 178.947 150.06 178.814 149.752 178.742C149.444 178.669 149.124 178.659 148.811 178.711C148.172 178.774 147.571 178.953 146.937 178.985C145.364 179.068 145.07 176.584 140.14 176.865C130.79 169.397 129.108 162.869 120.865 157.644C123.321 150.848 125.533 145.214 127.995 138.417C128.795 136.207 129.601 133.946 129.402 131.57C129.204 129.194 127.695 126.824 125.386 126.377C124.319 126.266 123.24 126.384 122.222 126.721C121.203 127.058 120.268 127.607 119.477 128.331C118.198 129.666 118.051 130.982 117.309 132.656C113.76 140.653 112.59 149.2 109.469 157.299C109.176 158.062 109.101 158.89 109.253 159.693C109.406 160.495 109.78 161.239 110.332 161.841C117.053 169.187 126.806 175.753 136.718 181.917C137.014 182.856 137.666 183.642 138.534 184.108C139.399 184.567 140.199 185.139 140.913 185.807C141.25 186.254 141.613 186.681 142.001 187.085C142.236 187.249 142.508 187.354 142.794 187.39C143.079 187.425 143.369 187.391 143.638 187.289C144.418 187.002 145.447 187.762 145.742 187.136C146.157 186.254 147.129 186.497 147.73 186.35C148.101 186.248 148.127 185.29 148.428 185.073C148.92 184.683 150.116 184.306 150.602 183.917C151.452 183.227 151.088 182.639 151.938 182L148.14 181.994Z" fill="#FAD1A5"/>
<path d="M110.236 158.558C115.455 148.663 115.173 132.822 124.689 126.306C122.761 126.317 120.906 127.038 119.477 128.331C118.198 129.666 118.051 130.982 117.309 132.656C113.76 140.653 112.59 149.2 109.469 157.299C109.176 158.062 109.101 158.89 109.253 159.693C109.406 160.495 109.78 161.239 110.332 161.841C117.053 169.187 126.806 175.753 136.718 181.917C137.014 182.856 137.666 183.642 138.534 184.108C139.399 184.567 140.199 185.139 140.913 185.807C141.25 186.254 141.613 186.681 142.001 187.085C142.236 187.249 142.508 187.354 142.794 187.39C143.079 187.425 143.369 187.391 143.638 187.289C144.418 187.002 145.447 187.762 145.742 187.136C146.157 186.254 147.129 186.497 147.73 186.35C148.101 186.248 148.127 185.29 148.428 185.073C148.832 184.818 149.26 184.604 149.707 184.434C134.531 179.65 120.82 171.422 110.236 158.558Z" fill="#EFB784"/>
<path d="M127.996 138.417C128.795 136.207 129.601 133.946 129.402 131.57C129.204 129.194 127.695 126.824 125.386 126.377C124.319 126.266 123.24 126.384 122.222 126.721C121.203 127.058 120.268 127.607 119.477 128.331C118.198 129.666 118.051 130.982 117.309 132.656C115.391 136.999 114.176 141.65 112.974 146.306C116.634 147.389 120.217 148.719 123.698 150.286L127.996 138.417Z" fill="#EA6F23"/>
<path d="M123.704 148.382H123.608C120.291 146.911 116.824 145.804 113.268 145.08C113.206 145.066 113.153 145.029 113.118 144.976C113.084 144.924 113.071 144.86 113.082 144.799C113.095 144.736 113.131 144.681 113.184 144.645C113.236 144.61 113.301 144.596 113.364 144.607C116.952 145.34 120.452 146.458 123.8 147.941C123.859 147.968 123.904 148.016 123.927 148.076C123.95 148.136 123.948 148.202 123.922 148.261C123.9 148.299 123.869 148.331 123.83 148.352C123.792 148.374 123.748 148.384 123.704 148.382Z" fill="#2E110D"/>
<path d="M138.189 139.484C138.108 138.749 137.799 138.057 137.307 137.504C135.727 135.39 133.572 133.799 131.551 132.062C129.53 130.324 127.567 128.472 126.768 125.955C128.098 125.7 128.955 122.499 130.304 123.604C129.959 124.741 129.805 126.543 130.56 127.622C131.381 128.673 132.517 129.434 133.802 129.794C135.06 130.191 136.342 130.509 137.639 130.746C140.696 131.385 140.977 132.809 141.911 133.748C141.764 133.608 141.272 134.01 141.08 134.131C140.282 134.783 139.724 135.682 139.494 136.686C139.251 137.523 138.982 138.941 138.189 139.484Z" fill="#A85642"/>
<path d="M142.582 128.344C141.293 127.657 140.194 126.66 139.385 125.444L139.724 128.708C140.456 128.91 141.149 129.236 141.77 129.673C142.079 129.894 142.325 130.192 142.486 130.537C142.646 130.881 142.714 131.261 142.685 131.64C142.563 132.496 141.77 133.205 141.847 134.067C142.015 133.853 142.247 133.698 142.509 133.624C142.771 133.551 143.05 133.563 143.305 133.659C143.67 133.835 143.988 134.096 144.232 134.419C144.993 135.294 145.761 136.163 146.522 137.031C146.17 135.39 145.812 133.754 145.454 132.113C145.236 131.097 144.98 130.011 144.213 129.302C143.714 128.912 143.166 128.59 142.582 128.344Z" fill="#A85642"/>
<path d="M145.78 143.361C145.011 139.912 143.982 136.526 142.704 133.231L140.421 133.959C141.387 137.306 142.122 140.168 142.979 143.361H145.78Z" fill="#A85642"/>
<path d="M142.819 136.169C142.915 136.629 142.819 137.044 142.601 137.089C142.384 137.134 142.122 136.808 142.019 136.348C141.917 135.888 142.019 135.473 142.237 135.428C142.454 135.383 142.716 135.709 142.819 136.169Z" fill="#FFFDEE"/>
<path d="M143.932 140.653C144.034 141.113 143.932 141.522 143.714 141.573C143.497 141.624 143.235 141.285 143.132 140.826C143.03 140.366 143.132 139.957 143.35 139.906C143.567 139.855 143.829 140.193 143.932 140.653Z" fill="#FFFDEE"/>
<path d="M143.228 105.681C142.746 104.582 141.886 103.692 140.804 103.17C139.142 102.385 137.172 102.57 135.42 103.107C133.098 103.809 130.886 105.163 129.664 107.246C128.996 108.486 128.643 109.872 128.635 111.28C128.627 112.689 128.965 114.078 129.62 115.326C129.792 115.665 129.985 115.993 130.195 116.31C130.553 116.042 130.924 115.78 131.295 115.524C130.744 114.901 130.254 114.228 129.831 113.512C129.236 112.324 130.419 111.142 131.014 110.548C133.066 109.52 134.678 111.187 135.075 113.154C137.728 111.679 140.498 110.423 143.356 109.398V109.335C143.759 108.142 143.714 106.843 143.228 105.681Z" fill="#EFB784"/>
<path d="M143.138 110.561C143.104 110.162 143.177 109.76 143.349 109.398C138.646 111.042 134.211 113.371 130.188 116.31C131.569 118.328 133.491 119.917 135.733 120.896C137.171 121.595 138.69 122.116 140.254 122.448L143.727 121.337C144.046 118.884 143.938 117.408 144.366 114.758C144.47 113.71 144.285 112.654 143.829 111.704C143.542 111.36 143.31 110.975 143.138 110.561Z" fill="#FAD1A5"/>
<path d="M128.954 116.163C128.159 115.172 127.624 113.997 127.401 112.746C127.177 111.495 127.272 110.207 127.675 109.002L135.458 106.268C136.008 106.077 136.686 105.911 137.121 106.268C137.274 106.44 137.373 106.652 137.407 106.879C137.441 107.106 137.408 107.337 137.313 107.546C137.107 108.001 136.847 108.43 136.539 108.824C136.069 109.5 135.76 110.274 135.636 111.088C135.512 111.902 135.576 112.733 135.823 113.518L135.011 113.946C134.745 113.111 134.274 112.356 133.642 111.749C133.319 111.454 132.901 111.285 132.463 111.275C132.026 111.264 131.6 111.412 131.263 111.692C131.057 111.943 130.924 112.247 130.878 112.569C130.832 112.89 130.874 113.219 131.001 113.518C131.258 114.117 131.627 114.661 132.088 115.122C131.525 116.195 131.672 117.421 131.11 118.494C130.937 117.613 129.511 116.84 128.954 116.163Z" fill="#EA6F23"/>
<path d="M127.311 111.066C132.606 109.616 138.579 107.801 144.066 107.968C144.234 105.727 143.595 103.5 142.263 101.689C140.856 99.9766 138.099 100.213 135.868 100.411C133.645 100.646 131.516 101.427 129.671 102.685C128.967 103.075 128.368 103.63 127.925 104.301C126.895 106.07 127.4 109.513 127.311 111.066Z" fill="#2E110D"/>
<path d="M146.426 105.662C145.531 105.533 144.624 105.522 143.727 105.63C141.284 106.058 136.328 108.236 136.935 108.491L138.457 108.549C140.095 108.974 141.77 109.237 143.458 109.335C145.006 109.469 146.298 108.887 147.622 108.057C148.459 107.552 149.15 106.824 149.981 106.313C150.015 106.292 150.04 106.26 150.055 106.224C150.07 106.187 150.073 106.147 150.064 106.108C150.055 106.07 150.034 106.035 150.004 106.009C149.975 105.983 149.938 105.966 149.898 105.962L146.426 105.662Z" fill="#EA6F23"/>
<path d="M140.453 105.47C140.988 105.288 141.473 104.982 141.866 104.576C142.063 104.381 142.202 104.136 142.268 103.867C142.334 103.599 142.325 103.317 142.242 103.053C142.159 102.789 142.005 102.553 141.796 102.371C141.588 102.189 141.333 102.068 141.06 102.021C140.52 101.91 139.962 101.928 139.43 102.072C138.788 102.189 138.19 102.476 137.697 102.902C137.439 103.103 137.249 103.377 137.151 103.689C137.054 104 137.053 104.334 137.149 104.645C137.246 104.957 137.435 105.232 137.691 105.434C137.948 105.636 138.26 105.756 138.585 105.777C139.224 105.839 139.868 105.733 140.453 105.47Z" fill="#FFFDEE"/>
<path d="M139.564 109.002C138.558 109.303 137.609 109.769 136.757 110.382C136.712 110.41 136.679 110.452 136.66 110.501C136.642 110.549 136.64 110.603 136.654 110.653C136.668 110.703 136.698 110.748 136.74 110.779C136.781 110.811 136.832 110.829 136.884 110.829C136.928 110.828 136.97 110.815 137.006 110.791C137.986 110.204 139.028 109.729 140.114 109.373C139.923 109.26 139.74 109.137 139.564 109.002Z" fill="#2E110D"/>
<path d="M142.448 116.572C142.405 116.571 142.363 116.56 142.327 116.539C142.29 116.517 142.259 116.487 142.237 116.45C142.207 116.394 142.2 116.329 142.218 116.268C142.236 116.207 142.277 116.156 142.333 116.125C142.672 115.962 142.983 115.746 143.254 115.486C143.368 115.371 143.454 115.231 143.505 115.076C143.557 114.922 143.571 114.759 143.548 114.598C143.434 114.31 143.249 114.055 143.011 113.857L142.915 113.768C142.825 113.678 142.697 113.563 142.55 113.435C141.834 112.797 141.271 112.235 141.207 111.723C141.178 111.158 141.223 110.591 141.342 110.037C141.353 109.975 141.387 109.919 141.439 109.882C141.49 109.845 141.554 109.83 141.617 109.839C141.679 109.852 141.735 109.888 141.772 109.94C141.809 109.992 141.824 110.057 141.815 110.12C141.7 110.636 141.657 111.164 141.687 111.692C141.687 112.049 142.435 112.694 142.87 113.078C143.023 113.212 143.158 113.333 143.254 113.429L143.343 113.518C143.644 113.773 143.866 114.107 143.983 114.483C144.029 114.719 144.017 114.964 143.947 115.194C143.876 115.425 143.75 115.635 143.58 115.805C143.278 116.113 142.925 116.365 142.537 116.553C142.509 116.565 142.479 116.571 142.448 116.572Z" fill="#2E110D"/>
<path d="M141.572 119.312C141.682 119.358 141.799 119.388 141.917 119.401C142.374 119.399 142.819 119.261 143.196 119.005C143.228 118.39 143.298 117.778 143.407 117.172L140.351 118.092C140.628 118.611 141.053 119.035 141.572 119.312Z" fill="#FFFDEE"/>
<path d="M138.905 111.334C139.02 111.334 139.084 111.468 139.129 111.57C139.244 111.887 139.294 112.224 139.276 112.56C138.98 112.592 138.691 112.669 138.419 112.79C138.341 112.352 138.418 111.9 138.636 111.513C138.694 111.436 138.79 111.321 138.905 111.334Z" fill="#2E110D"/>
<path d="M142.736 109.897C142.806 109.897 142.845 109.999 142.87 110.088C142.942 110.35 142.972 110.622 142.96 110.893C142.776 110.92 142.6 110.983 142.442 111.078C142.396 110.734 142.44 110.385 142.57 110.063C142.608 109.973 142.666 109.884 142.736 109.897Z" fill="#2E110D"/>
<path d="M105.409 287.747C107.672 288.904 110.614 287.39 111.708 285.097C112.801 282.803 112.443 280.076 111.624 277.668C110.806 275.26 109.559 273.018 108.875 270.571C106.598 262.414 110.883 253.963 111.471 245.538C112.213 234.864 106.994 223.993 109.872 213.683C110.812 210.317 112.603 206.912 111.791 203.514C111.151 200.748 108.875 198.666 107.653 196.098C105.895 192.418 106.374 188.113 106.899 184.076L109.15 166.676C109.329 165.29 109.482 163.783 108.759 162.595C107.851 161.113 105.786 160.678 104.142 161.208C102.527 161.865 101.177 163.041 100.305 164.549C96.8008 169.921 96.9415 176.948 98.6234 183.137C100.305 189.327 103.343 195.057 105.357 201.125C107.372 207.193 108.376 214.021 105.869 219.924C105.127 221.674 104.091 223.296 103.484 225.098C102.876 226.899 102.755 229 103.778 230.604C104.539 231.792 105.901 232.686 106.086 234.085C106.317 235.848 104.584 237.177 103.816 238.78C102.646 241.246 103.848 244.101 104.456 246.764C105.472 251.191 104.763 255.803 104.341 260.332C103.499 269.478 103.858 278.694 105.409 287.747Z" fill="#1394CC"/>
<path d="M105.613 181.406C105.997 188.816 106.381 196.232 106.643 203.648C107.135 217.356 107.231 231.07 107.327 244.778L107.397 255.196C107.468 265.787 107.551 276.48 109.955 286.802L107.851 286.304L108.785 285.122C108.881 275.304 109.041 265.493 109.086 255.675C109.22 225.685 102.575 196.13 104.807 165.865L105.613 181.406Z" fill="#FCF2E0"/>
<path d="M219.079 272.986C218.44 270.188 218.9 267.269 219.36 264.439C217.287 264.748 215.2 264.948 213.106 265.039C213.48 266.542 213.677 268.084 213.694 269.632C213.71 271.194 213.179 272.713 212.192 273.925C211.142 274.961 209.853 275.723 208.438 276.141C207.024 276.554 205.675 277.16 204.428 277.942C203.232 278.798 202.311 279.814 202.458 281.277C203.91 282.363 214.526 280.491 220.569 279.91C220.882 277.559 219.61 275.317 219.079 272.986Z" fill="#FAD1A5"/>
<path d="M221.611 279.725C220.092 280.384 218.489 280.831 216.847 281.053C215.108 281.315 213.349 281.424 211.59 281.526C208.623 281.705 205.438 281.698 202.471 281.877C202.074 281.238 202.254 280.664 202.106 280.121C204.618 280.375 207.151 280.358 209.659 280.07C212.914 279.661 216.176 279.258 219.379 278.556C220.062 278.425 220.726 278.21 221.356 277.917C221.329 278.53 221.416 279.143 221.611 279.725Z" fill="#A85642"/>
<path d="M210.369 280.204C210.525 280.174 210.664 280.087 210.759 279.961C210.809 279.855 210.831 279.739 210.823 279.622C210.825 278.704 210.506 277.814 209.921 277.106C209.625 276.758 209.255 276.482 208.838 276.297C208.42 276.113 207.967 276.024 207.51 276.039C206.931 276.099 206.37 276.275 205.86 276.556C204.879 277.042 203.975 277.668 203.174 278.415C202.688 278.819 202.314 279.34 202.087 279.929C202.02 280.097 202.02 280.285 202.087 280.453C202.228 280.721 202.586 280.753 202.887 280.747C204.62 280.747 206.353 280.664 208.079 280.542C208.853 280.516 209.621 280.403 210.369 280.204Z" fill="#A85642"/>
<path d="M206.826 192.834C207.977 203.156 205.713 215.829 206.135 225.411C206.813 240.875 213.336 255.969 212.044 271.402C215.075 272.928 217.365 272.813 221.368 270.558C220.147 252.928 220.729 231.306 222.82 212.488C223.076 210.157 224.419 208.119 225.026 204.025C225.736 199.292 225.614 196.494 224.853 192.827L206.826 192.834Z" fill="#A85642"/>
<path d="M209.634 192.834C210.689 203.054 208.489 215.567 208.905 225.021C209.582 240.485 216.105 255.586 214.814 271.012C217.845 272.539 220.134 272.424 224.137 270.169C222.916 252.539 223.498 230.917 225.589 212.105C225.845 209.767 227.188 207.73 227.795 203.635C228.48 199.074 228.39 196.309 227.706 192.834H209.634Z" fill="#2E110D"/>
<path d="M224.726 278.632C224.086 275.835 224.54 272.915 225.001 270.079C222.93 270.387 220.845 270.589 218.753 270.686C219.123 272.187 219.321 273.726 219.341 275.272C219.352 276.834 218.821 278.351 217.838 279.565C216.786 280.601 215.495 281.362 214.078 281.781C212.666 282.198 211.318 282.804 210.069 283.583C208.879 284.439 207.945 285.831 208.092 287.294C210.331 288.06 220.173 286.138 226.21 285.557C226.529 283.206 225.25 280.951 224.726 278.632Z" fill="#FAD1A5"/>
<path d="M226.823 285.895C225.304 286.556 223.701 287.003 222.059 287.224C220.32 287.486 218.561 287.594 216.802 287.696C213.835 287.875 210.644 287.869 207.677 288.048C207.286 287.409 207.465 286.84 207.312 286.291C209.826 286.545 212.36 286.528 214.871 286.24C218.126 285.838 221.387 285.429 224.591 284.726C225.274 284.595 225.938 284.381 226.567 284.087C226.538 284.701 226.624 285.314 226.823 285.895Z" fill="#A85642"/>
<path d="M215.574 286.4C215.732 286.371 215.874 286.285 215.971 286.157C216.023 286.052 216.045 285.935 216.035 285.818C216.034 284.9 215.713 284.01 215.127 283.302C214.83 282.955 214.46 282.679 214.043 282.495C213.625 282.31 213.172 282.221 212.716 282.235C212.139 282.296 211.58 282.472 211.072 282.752C210.091 283.238 209.187 283.864 208.386 284.611C207.898 285.013 207.524 285.535 207.299 286.125C207.232 286.293 207.232 286.481 207.299 286.649C207.44 286.917 207.798 286.949 208.099 286.943C209.832 286.943 211.565 286.86 213.291 286.738C214.063 286.712 214.829 286.599 215.574 286.4Z" fill="#A85642"/>
<path d="M211.514 192.834C212.793 204.057 210.452 217.982 210.874 228.457C211.559 245.155 218.082 261.456 216.79 278.109C220.16 278.038 222.373 278.422 226.491 277.048C225.208 256.207 225.565 235.298 227.559 214.513C227.815 211.997 229.158 209.793 229.772 205.373C230.501 200.071 230.347 197.018 229.51 192.834H211.514Z" fill="#EA6F23"/>
<path d="M218.938 237.451C217.684 236.564 216.502 235.579 215.402 234.507C214.376 233.525 213.289 232.61 212.147 231.766C212.083 231.92 212.025 232.073 211.968 232.226C213.056 233.039 214.094 233.918 215.076 234.858C216.193 235.945 217.393 236.944 218.663 237.847C218.704 237.873 218.75 237.886 218.798 237.886C218.837 237.887 218.875 237.878 218.91 237.86C218.945 237.842 218.974 237.816 218.996 237.783C219.014 237.758 219.027 237.729 219.034 237.699C219.041 237.668 219.042 237.636 219.037 237.605C219.032 237.574 219.02 237.545 219.003 237.518C218.986 237.492 218.964 237.469 218.938 237.451Z" fill="#2E110D"/>
<path d="M212.901 236.908C212.859 236.867 212.803 236.842 212.744 236.839C212.685 236.836 212.626 236.855 212.58 236.892C212.533 236.929 212.502 236.981 212.492 237.04C212.482 237.098 212.493 237.158 212.524 237.209C213.522 238.461 214.686 239.572 215.984 240.511C216.025 240.54 216.074 240.556 216.125 240.556C216.163 240.556 216.2 240.547 216.235 240.531C216.269 240.514 216.299 240.49 216.323 240.46C216.341 240.434 216.354 240.404 216.362 240.373C216.369 240.342 216.37 240.31 216.364 240.279C216.359 240.247 216.347 240.217 216.33 240.19C216.313 240.163 216.291 240.14 216.265 240.121C215.002 239.209 213.87 238.128 212.901 236.908Z" fill="#2E110D"/>
<path d="M230.488 198.544C230.59 200.148 230.699 201.738 230.801 203.36C222.73 204.622 214.538 204.92 206.397 204.248C206.449 202.23 206.493 200.218 206.545 198.206L230.488 198.544Z" fill="#0071A2"/>
<path d="M208.476 199.751L208.06 198.25H207.862L207.785 204.37L208.38 204.408L208.437 199.79L208.476 199.751Z" fill="#FFFDEE"/>
<path d="M209.256 199.713C209.249 201.298 209.328 202.883 209.493 204.459H210.088C209.926 202.876 209.847 201.285 209.851 199.694L209.256 199.713Z" fill="#FFFDEE"/>
<path d="M212.831 199.272V204.574H213.432V199.266L212.831 199.272Z" fill="#FFFDEE"/>
<path d="M215.786 199.094L215.971 204.587H216.566L216.38 199.087L215.786 199.094Z" fill="#FFFDEE"/>
<path d="M217.845 199.119L217.257 199.042C217.023 200.873 216.978 202.722 217.122 204.561H217.717C217.57 202.748 217.613 200.924 217.845 199.119Z" fill="#FFFDEE"/>
<path d="M221.305 198.672C221.262 200.578 221.36 202.485 221.599 204.376L222.194 204.331C221.955 202.459 221.857 200.572 221.899 198.685L221.305 198.672Z" fill="#FFFDEE"/>
<path d="M222.967 198.825C222.943 200.636 223.017 202.446 223.191 204.248L223.785 204.197C223.609 202.414 223.534 200.623 223.562 198.832L222.967 198.825Z" fill="#FFFDEE"/>
<path d="M224.617 204.133L225.205 204.07C225.141 202.209 225.205 200.345 225.397 198.493H225.167H224.809C224.615 200.367 224.551 202.251 224.617 204.133Z" fill="#FFFDEE"/>
<path d="M228.083 198.774L227.495 198.736C227.385 200.437 227.385 202.144 227.495 203.846L228.083 203.769C227.98 202.106 227.98 200.438 228.083 198.774Z" fill="#FFFDEE"/>
<path d="M229.375 198.8H228.78C228.739 200.415 228.79 202.032 228.934 203.642L229.522 203.558C229.379 201.976 229.33 200.387 229.375 198.8Z" fill="#FFFDEE"/>
<path d="M230.603 200.339L230.488 198.544L206.532 198.206C206.532 199.1 206.487 199.994 206.468 200.882C214.57 201.489 222.794 201.732 230.603 200.339Z" fill="#2E110D"/>
<path d="M200.105 181.272L198.334 178.576C196.019 179.752 193.518 181.132 192.617 183.559C192.323 184.63 192.084 185.715 191.9 186.81C191.521 187.834 191.209 188.882 190.967 189.946C190.583 192.866 192.943 195.651 192.47 198.551C192.73 198.392 192.946 198.17 193.097 197.905C193.248 197.64 193.329 197.341 193.333 197.037C193.397 196.43 193.461 195.759 193.582 195.12C193.701 194.615 193.919 194.137 194.222 193.715C194.222 193.86 194.235 194.007 194.26 194.156C194.241 194.399 194.283 194.642 194.382 194.865C194.51 195.076 194.829 195.191 195.021 195.018C195.095 194.926 195.141 194.816 195.155 194.699C195.277 194.06 195.398 193.466 195.526 192.853C195.61 192.431 195.686 192.003 195.757 191.575C195.909 191.319 196.033 191.047 196.128 190.764C196.677 188.95 195.526 186.983 195.91 185.124C196.268 183.195 198.225 181.962 200.105 181.272Z" fill="#EFB784"/>
<path d="M191.242 181.828C191.095 182.224 191.53 182.575 191.881 182.799C193.446 183.776 194.715 185.161 195.552 186.804C195.727 187.206 195.96 187.58 196.243 187.915C196.39 188.08 196.582 188.198 196.796 188.256C197.009 188.314 197.234 188.308 197.445 188.241C197.672 188.117 197.867 187.942 198.014 187.73L201.372 183.584L196.895 178.014L191.619 181.432C191.456 181.522 191.324 181.66 191.242 181.828Z" fill="#1394CC"/>
<path d="M199.363 184.306C199.322 184.265 199.265 184.242 199.207 184.242C199.148 184.242 199.092 184.265 199.05 184.306C198.149 185.128 197.344 186.049 196.652 187.053L196.946 187.417C197.632 186.397 198.437 185.462 199.344 184.632C199.369 184.613 199.389 184.589 199.403 184.562C199.417 184.534 199.426 184.504 199.428 184.473C199.429 184.443 199.425 184.412 199.414 184.383C199.402 184.354 199.385 184.328 199.363 184.306Z" fill="#FCF2E0"/>
<path d="M196.198 186.491C196.952 185.528 197.791 184.635 198.704 183.821C198.731 183.803 198.753 183.78 198.77 183.753C198.786 183.725 198.797 183.695 198.801 183.664C198.805 183.632 198.802 183.6 198.793 183.57C198.783 183.539 198.767 183.511 198.746 183.488C198.725 183.464 198.699 183.445 198.67 183.432C198.641 183.419 198.61 183.412 198.578 183.412C198.546 183.412 198.515 183.419 198.486 183.432C198.457 183.445 198.431 183.465 198.41 183.489C197.491 184.303 196.648 185.199 195.891 186.165L196.198 186.491Z" fill="#FCF2E0"/>
<path d="M195.475 185.731L198.263 183.144C198.298 183.102 198.316 183.049 198.314 182.995C198.313 182.941 198.292 182.89 198.255 182.85C198.219 182.81 198.169 182.785 198.115 182.779C198.061 182.773 198.007 182.787 197.963 182.818L195.162 185.418C195.264 185.526 195.366 185.628 195.475 185.731Z" fill="#FCF2E0"/>
<path d="M193.832 184.198L197.259 181.706C197.283 181.69 197.303 181.669 197.319 181.644C197.334 181.62 197.345 181.592 197.35 181.564C197.354 181.535 197.353 181.506 197.347 181.478C197.34 181.45 197.328 181.423 197.311 181.4C197.293 181.376 197.272 181.355 197.247 181.34C197.222 181.324 197.194 181.314 197.165 181.309C197.135 181.304 197.106 181.305 197.077 181.312C197.048 181.319 197.021 181.331 196.997 181.349L193.48 183.904L193.832 184.198Z" fill="#FCF2E0"/>
<path d="M193.109 183.623L196.511 181.528C196.536 181.513 196.557 181.493 196.574 181.47C196.591 181.446 196.603 181.42 196.609 181.392C196.616 181.364 196.617 181.335 196.612 181.307C196.607 181.279 196.597 181.252 196.582 181.227C196.567 181.202 196.548 181.181 196.525 181.163C196.502 181.146 196.475 181.133 196.448 181.126C196.42 181.119 196.39 181.117 196.362 181.122C196.333 181.126 196.306 181.136 196.281 181.151L192.738 183.329L193.109 183.623Z" fill="#FCF2E0"/>
<path d="M195.162 179.867C194.887 179.956 194.632 180.099 194.414 180.288C194.303 180.381 194.222 180.505 194.18 180.643C194.138 180.781 194.137 180.929 194.177 181.068C194.298 181.413 194.708 181.547 195.027 181.738C195.288 181.898 195.506 182.118 195.664 182.379C195.822 182.64 195.915 182.935 195.936 183.239C195.936 183.68 195.846 184.185 196.159 184.517C196.473 184.849 196.914 184.766 197.119 185.085C197.323 185.405 197.004 186.12 197.336 186.465C197.425 186.536 197.533 186.58 197.646 186.591C197.76 186.602 197.874 186.581 197.976 186.529C198.182 186.411 198.363 186.252 198.506 186.063L200.355 183.897C200.441 183.812 200.501 183.703 200.527 183.584C200.524 183.504 200.505 183.425 200.469 183.352C200.434 183.279 200.384 183.215 200.323 183.163C199.121 181.661 197.715 180.335 196.147 179.222L195.162 179.867Z" fill="#2E110D"/>
<path d="M216.969 131.18C214.193 131.621 212.14 134.016 210.906 136.533C207.587 143.304 208.527 151.314 206.941 158.685C205.269 166.277 200.965 173.034 194.791 177.765C194.63 177.886 194.496 178.04 194.397 178.215C194.298 178.39 194.236 178.584 194.216 178.785C194.196 178.985 194.217 179.187 194.278 179.379C194.34 179.571 194.44 179.748 194.573 179.899L199.427 185.45C199.644 185.701 199.913 185.903 200.216 186.041C200.518 186.179 200.847 186.251 201.179 186.251C201.512 186.251 201.84 186.179 202.143 186.041C202.445 185.903 202.714 185.701 202.932 185.45C208.259 179.164 213.4 172.674 217.301 165.45C221.631 157.421 224.387 148.331 223.696 139.261C223.472 136.316 222.865 133.314 221.228 130.854L216.969 131.18Z" fill="#0071A2"/>
<path d="M220.428 160.014C224.355 155.896 227.868 151.403 230.916 146.6C232.573 144 234.159 141.094 233.909 138.015C233.66 134.936 230.769 131.915 227.776 132.681C225.813 133.186 224.534 135.026 223.447 136.737L212.901 153.205C205.019 151.052 197.32 148.275 189.879 144.901L187.123 150.401L207.945 161.202C210.535 162.544 213.477 163.923 216.259 163.042C217.909 162.537 219.226 161.272 220.428 160.014Z" fill="#FAD1A5"/>
<path d="M215.172 132.356C213.829 133.552 212.779 135.04 212.102 136.706C211.635 137.696 211.213 138.896 211.782 139.823C212.031 140.169 212.37 140.439 212.763 140.605C213.155 140.771 213.586 140.825 214.008 140.762C214.844 140.619 215.642 140.308 216.355 139.848C220.267 137.723 223.764 134.91 226.676 131.544C224.747 131.037 222.767 130.744 220.774 130.669C218.771 130.594 216.799 131.187 215.172 132.356Z" fill="#2E110D"/>
<path d="M205.048 184.121C204.991 188.995 204.466 192.725 204.409 196.896C204.406 197.266 204.476 197.633 204.616 197.976C204.756 198.318 204.963 198.629 205.225 198.891C205.487 199.153 205.799 199.36 206.142 199.5C206.485 199.64 206.852 199.71 207.223 199.707L230.699 199.528C230.854 199.526 231.005 199.476 231.13 199.384C231.255 199.293 231.348 199.164 231.396 199.017C232.192 196.719 232.241 194.229 231.537 191.901C229.976 186.963 227.175 182.23 226.619 177.082C226.05 171.761 227.533 166.453 229.177 161.368C230.82 156.284 232.656 151.148 232.828 145.802C233.001 140.455 235.661 135 231.306 131.883L223.389 130.733C221.398 130.465 219.375 130.556 217.416 131.001C214.904 131.67 212.741 133.269 211.367 135.473C210.3 137.331 209.408 139.283 208.7 141.305C207.351 145.712 203.098 148.97 202.414 153.511C201.902 156.89 203.482 160.18 204.371 163.482C206.142 170.145 205.119 177.216 205.048 184.121Z" fill="#1394CC"/>
<path d="M232.803 145.789C232.969 140.449 235.636 134.987 231.281 131.87L227.534 131.327C220.665 138.354 216.291 147.756 212.959 157.184C209.992 166.076 218.299 173.192 218.299 181.457C218.299 183.827 214.149 185.609 214.149 189.161C215.927 189.161 217.704 189.161 219.489 190.349C216.904 193.015 214.88 196.171 213.535 199.63L230.699 199.528C230.854 199.526 231.005 199.476 231.13 199.384C231.255 199.293 231.348 199.164 231.396 199.017C232.192 196.719 232.241 194.229 231.537 191.901C229.976 186.963 227.175 182.23 226.619 177.082C226.05 171.761 227.534 166.453 229.177 161.368C230.821 156.284 232.618 151.135 232.803 145.789Z" fill="#0071A2"/>
<path d="M212.684 142.391C212.184 142.402 211.693 142.259 211.277 141.982C210.913 141.716 210.618 141.367 210.419 140.963C210.219 140.559 210.121 140.113 210.132 139.663C210.166 138.803 210.384 137.96 210.772 137.191C211.792 134.922 213.366 132.945 215.351 131.442C215.376 131.423 215.404 131.41 215.435 131.403C215.465 131.395 215.497 131.394 215.527 131.398C215.558 131.403 215.588 131.414 215.615 131.43C215.642 131.446 215.665 131.468 215.683 131.493C215.703 131.518 215.718 131.546 215.726 131.576C215.735 131.606 215.737 131.638 215.733 131.669C215.728 131.7 215.718 131.73 215.702 131.757C215.685 131.784 215.664 131.807 215.638 131.825C213.716 133.279 212.194 135.195 211.213 137.395C210.861 138.101 210.665 138.875 210.637 139.663C210.632 140.032 210.713 140.398 210.874 140.731C211.035 141.063 211.272 141.354 211.565 141.579C212.383 142.129 213.566 141.988 215.184 141.145C219.021 139.152 222.526 136.527 225.922 133.984C225.973 133.946 226.038 133.931 226.102 133.94C226.165 133.95 226.222 133.984 226.26 134.035C226.279 134.061 226.293 134.089 226.3 134.119C226.308 134.15 226.309 134.181 226.304 134.212C226.3 134.243 226.289 134.273 226.272 134.299C226.256 134.326 226.235 134.349 226.209 134.368C222.801 136.923 219.271 139.561 215.408 141.567C214.579 142.055 213.645 142.337 212.684 142.391Z" fill="#FCF2E0"/>
<path d="M215.894 168.982C214.321 168.982 212.863 168.197 211.526 167.36C208.004 165.149 204.923 162.306 202.439 158.973C213.997 157.445 224.643 151.886 232.496 143.278C231.363 151.483 227.8 159.162 222.264 165.329C220.556 167.194 218.414 169.021 215.894 168.982Z" fill="#2E110D"/>
<path d="M207.261 195.849C207.219 195.849 207.178 195.838 207.142 195.816C207.106 195.795 207.076 195.764 207.057 195.727C206.912 195.444 206.831 195.133 206.819 194.815C206.807 194.498 206.863 194.181 206.985 193.888C207.106 193.594 207.29 193.33 207.523 193.114C207.756 192.898 208.033 192.735 208.336 192.636C208.397 192.619 208.462 192.627 208.517 192.658C208.572 192.689 208.613 192.741 208.63 192.802C208.647 192.863 208.639 192.928 208.607 192.983C208.576 193.038 208.524 193.079 208.463 193.096C208.228 193.17 208.012 193.296 207.833 193.465C207.653 193.634 207.515 193.842 207.427 194.073C207.248 194.478 207.236 194.937 207.395 195.35C214.776 193.871 221.323 189.659 225.724 183.559C225.764 183.517 225.819 183.491 225.877 183.486C225.935 183.481 225.993 183.497 226.04 183.531C226.088 183.565 226.121 183.615 226.135 183.672C226.148 183.728 226.141 183.788 226.114 183.84C221.599 190.081 214.874 194.371 207.306 195.836L207.261 195.849Z" fill="#FFFDEE"/>
<path d="M212.53 191.863C212.474 191.864 212.419 191.846 212.375 191.81C212.331 191.774 212.301 191.724 212.291 191.668C212.281 191.613 212.291 191.555 212.32 191.507C212.348 191.458 212.394 191.421 212.447 191.403C215.323 190.328 218.044 188.876 220.537 187.085C220.589 187.048 220.653 187.034 220.715 187.045C220.778 187.056 220.833 187.091 220.87 187.142C220.906 187.194 220.92 187.258 220.91 187.32C220.899 187.383 220.864 187.438 220.812 187.474C218.288 189.296 215.53 190.772 212.614 191.863H212.53Z" fill="#FFFDEE"/>
<path d="M221.266 173.134C216.213 173.116 211.177 172.552 206.244 171.454C206.182 171.44 206.127 171.403 206.092 171.349C206.058 171.295 206.046 171.229 206.059 171.167C206.066 171.136 206.079 171.107 206.097 171.081C206.115 171.055 206.138 171.033 206.165 171.017C206.192 171 206.222 170.989 206.253 170.984C206.284 170.979 206.316 170.98 206.347 170.988C211.246 172.075 216.248 172.634 221.266 172.655C221.301 172.649 221.337 172.651 221.371 172.661C221.405 172.67 221.436 172.687 221.463 172.71C221.49 172.732 221.511 172.761 221.526 172.793C221.541 172.825 221.549 172.859 221.549 172.895C221.549 172.93 221.541 172.965 221.526 172.997C221.511 173.029 221.49 173.057 221.463 173.08C221.436 173.102 221.405 173.119 221.371 173.129C221.337 173.138 221.301 173.14 221.266 173.134Z" fill="#FFFDEE"/>
<path d="M212.658 177.408C212.604 177.408 212.551 177.389 212.508 177.356C212.465 177.322 212.435 177.275 212.422 177.222C212.408 177.161 212.419 177.096 212.453 177.042C212.486 176.989 212.539 176.95 212.601 176.935C214.806 176.399 217.065 176.11 219.335 176.073C219.398 176.072 219.459 176.097 219.504 176.141C219.55 176.185 219.576 176.246 219.578 176.309C219.578 176.34 219.573 176.372 219.562 176.401C219.55 176.431 219.533 176.457 219.511 176.48C219.489 176.503 219.462 176.521 219.433 176.533C219.404 176.545 219.373 176.552 219.341 176.552C217.108 176.591 214.886 176.876 212.716 177.401L212.658 177.408Z" fill="#FFFDEE"/>
<path d="M173.489 137.906L177.684 137.51C178.353 137.399 179.037 137.429 179.692 137.6C180.428 137.855 181.023 138.462 181.79 138.583C181.691 138.932 181.492 139.244 181.219 139.483C180.945 139.721 180.608 139.874 180.249 139.925C179.531 140.021 178.803 139.995 178.094 139.848C176.726 139.647 175.336 139.647 173.969 139.848C172.597 140.051 171.299 140.598 170.196 141.439C170.493 140.556 170.924 139.724 171.475 138.973C171.677 138.673 171.938 138.416 172.242 138.219C172.631 138.029 173.056 137.922 173.489 137.906Z" fill="#0071A2"/>
<path d="M181.662 138.935C181.022 139.689 179.807 139.701 178.848 139.395C177.889 139.088 177.013 138.526 176.028 138.302C173.937 137.843 171.756 138.999 169.633 138.583C169.787 138.513 169.919 138.401 170.012 138.26C170.106 138.119 170.159 137.954 170.164 137.785C170.169 137.446 170.237 137.11 170.362 136.795C170.477 136.623 170.631 136.482 170.813 136.383C170.995 136.284 171.197 136.23 171.404 136.226C171.816 136.227 172.227 136.278 172.626 136.38C173.616 136.579 174.629 136.652 175.638 136.597C176.373 136.494 177.121 136.514 177.85 136.654C178.575 136.961 179.26 137.354 179.89 137.823C180.212 138.052 180.591 138.187 180.985 138.214C181.379 138.241 181.772 138.159 182.122 137.977L181.662 138.935Z" fill="#2E110D"/>
<path d="M175.407 137.491C173.419 136.993 171.232 137.849 169.307 137.14L172.626 134.808C174.327 135.677 176.501 134.63 178.26 135.371C178.997 135.773 179.682 136.264 180.3 136.833C180.61 137.117 180.984 137.324 181.389 137.435C181.795 137.546 182.222 137.559 182.634 137.472C182.046 138.347 181.323 139.312 180.274 139.388C179.763 139.406 179.257 139.291 178.803 139.056C177.659 138.571 176.623 137.791 175.407 137.491Z" fill="#1394CC"/>
<path d="M183.798 142.32C183.548 141.483 182.519 140.059 182.519 139.184C181.516 138.937 180.634 138.341 180.031 137.504C178.714 137.938 177.934 137.472 176.712 136.821C176.672 137.121 176.709 137.427 176.821 137.709C176.933 137.991 177.116 138.239 177.352 138.43C177.828 138.81 178.376 139.09 178.963 139.254C179.114 139.297 179.256 139.363 179.385 139.452C179.476 139.531 179.555 139.621 179.622 139.72L180.025 140.276C179.942 140.161 179.149 140.117 178.989 140.072C178.611 139.981 178.24 139.868 177.876 139.733C177.514 139.598 177.159 139.442 176.814 139.267C176.482 139.095 175.97 138.558 175.644 139.043C175.547 139.286 175.527 139.553 175.586 139.808C175.646 140.063 175.782 140.293 175.977 140.468C175.88 140.504 175.791 140.559 175.715 140.63C175.64 140.701 175.58 140.787 175.539 140.882C175.498 140.976 175.476 141.079 175.476 141.182C175.475 141.286 175.495 141.388 175.535 141.483C175.676 141.784 175.926 141.867 175.926 142.193C175.926 142.633 175.593 142.64 175.523 143.068C175.523 143.821 176.028 143.706 176.047 143.924C176.045 144.137 176.03 144.35 176.002 144.562C176.002 145.693 177.384 145.77 178.202 145.904C178.714 145.993 179.168 146.274 179.686 146.357C179.965 146.368 180.242 146.398 180.517 146.447C180.674 146.505 180.821 146.586 180.952 146.689C181.988 147.392 183.005 148.12 184.002 148.874C184.657 147.204 185.553 145.64 186.663 144.23C185.697 143.617 184.763 142.946 183.798 142.32Z" fill="#F4DFBD"/>
<path d="M189.189 144.997C187.836 144.458 186.72 143.455 186.043 142.167C184.66 142.748 183.473 143.71 182.619 144.941C181.765 146.172 181.28 147.62 181.221 149.117L185.218 150.579L189.189 144.997Z" fill="#1394CC"/>
<path d="M184.303 147.232C183.923 147.676 183.727 148.247 183.753 148.829C183.804 149.047 183.901 149.252 184.037 149.429C184.174 149.607 184.348 149.753 184.546 149.858C184.949 150.064 185.379 150.21 185.825 150.292C186.294 148.313 187.025 146.406 187.999 144.62C187.601 144.585 187.2 144.634 186.822 144.764C186.444 144.894 186.098 145.101 185.806 145.374C185.218 145.918 184.712 146.544 184.303 147.232Z" fill="#2E110D"/>
<path d="M232.618 133.569C231.185 131.813 228.391 131.742 226.376 132.796C224.362 133.85 222.948 135.741 221.605 137.568L213.433 148.733C212.646 149.807 211.751 150.95 210.459 151.288C209.385 151.544 208.272 151.161 207.229 150.784L198.628 147.648C196.805 147.009 194.945 146.3 193.48 145.035C192.642 144.307 191.888 143.368 190.813 143.119C188.952 142.678 187.366 144.441 186.26 146C185.524 146.918 184.962 147.964 184.604 149.085C184.43 149.647 184.41 150.246 184.546 150.819C184.682 151.392 184.969 151.918 185.378 152.342C186.343 153.198 187.782 153.154 188.997 153.575C190.666 154.157 191.868 155.594 193.32 156.597C194.698 157.465 196.184 158.15 197.739 158.634L212.045 163.757C213.381 164.236 214.82 164.722 216.195 164.396C217.303 164.006 218.296 163.348 219.086 162.48C225.014 156.999 230.859 151.02 233.724 143.476C234.453 141.56 235.003 139.427 234.364 137.459C233.724 135.492 232.822 132.611 230.833 133.141L232.618 133.569Z" fill="#0071A2"/>
<path d="M186.573 144.696L186.899 144.39L185.198 142.474C185.077 142.537 184.955 142.595 184.834 142.665C184.824 142.699 184.824 142.734 184.834 142.767L186.573 144.696Z" fill="#FCF2E0"/>
<path d="M183.542 148.759C182.903 148.542 182.218 148.312 181.566 148.044C181.566 148.19 181.496 148.337 181.464 148.478C182.103 148.733 182.743 148.963 183.382 149.174C183.427 149.066 183.485 148.893 183.542 148.759Z" fill="#FCF2E0"/>
<path d="M183.849 148.146L181.803 147.175C181.758 147.322 181.72 147.462 181.681 147.609L183.644 148.535C183.708 148.427 183.779 148.274 183.849 148.146Z" fill="#FCF2E0"/>
<path d="M184.405 147.258C183.673 146.825 182.976 146.336 182.321 145.795L182.142 146.223C182.779 146.738 183.452 147.208 184.156 147.628C184.239 147.501 184.322 147.373 184.405 147.258Z" fill="#FCF2E0"/>
<path d="M185.748 145.559C185.058 144.92 184.361 144.281 183.638 143.642C183.536 143.751 183.433 143.853 183.331 143.968C184.06 144.575 184.764 145.246 185.454 145.885L185.748 145.559Z" fill="#FCF2E0"/>
<path d="M215.914 162.09C215.333 162.063 214.769 161.888 214.276 161.58C213.783 161.272 213.378 160.843 213.1 160.333L212.307 161.113C212.269 161.149 212.221 161.173 212.169 161.179C212.117 161.186 212.065 161.176 212.019 161.151C209.582 159.739 206.82 158.142 203.84 157.734C203.462 157.683 203.072 157.651 202.682 157.612C201.618 157.671 200.556 157.455 199.6 156.985C198.643 156.515 197.824 155.807 197.221 154.929C196.76 154.356 196.236 153.835 195.66 153.377C194.381 152.47 192.789 152.247 191.222 152.029C190.698 151.959 190.173 151.883 189.662 151.787C187.584 151.397 185.089 150.126 184.878 147.833C184.875 147.801 184.878 147.769 184.887 147.739C184.896 147.708 184.911 147.68 184.931 147.656C184.952 147.631 184.977 147.611 185.005 147.597C185.033 147.582 185.064 147.573 185.096 147.571C185.159 147.566 185.222 147.585 185.271 147.626C185.32 147.667 185.352 147.725 185.358 147.788C185.543 149.819 187.839 150.982 189.751 151.32C190.257 151.41 190.775 151.487 191.286 151.557C192.911 151.78 194.592 152.01 195.942 152.994C196.551 153.469 197.103 154.013 197.585 154.616C198.146 155.444 198.912 156.111 199.809 156.552C200.706 156.994 201.703 157.194 202.701 157.133C203.098 157.172 203.494 157.203 203.891 157.261C206.89 157.67 209.646 159.235 212.076 160.646L212.991 159.752C213.019 159.724 213.054 159.704 213.092 159.692C213.13 159.681 213.17 159.68 213.208 159.688C213.247 159.697 213.282 159.715 213.312 159.741C213.342 159.766 213.366 159.799 213.381 159.835C213.581 160.323 213.912 160.746 214.338 161.058C214.763 161.37 215.266 161.559 215.792 161.605L230.724 143.017C231.855 141.755 232.77 140.316 233.429 138.756C233.916 137.408 234.069 135.466 232.982 134.067C232.963 134.043 232.949 134.015 232.941 133.984C232.933 133.954 232.931 133.923 232.935 133.892C232.939 133.861 232.949 133.831 232.965 133.805C232.981 133.778 233.002 133.754 233.027 133.735C233.052 133.715 233.08 133.701 233.111 133.692C233.142 133.683 233.174 133.681 233.206 133.685C233.237 133.69 233.268 133.7 233.295 133.716C233.323 133.733 233.347 133.754 233.366 133.78C233.862 134.525 234.168 135.38 234.258 136.271C234.349 137.161 234.22 138.061 233.884 138.89C233.205 140.501 232.262 141.989 231.095 143.291L216.093 161.975C216.074 162.007 216.048 162.034 216.017 162.054C215.986 162.074 215.95 162.086 215.914 162.09Z" fill="#FFFDEE"/>
<path d="M232.304 120.321C232.419 119.682 231.914 119.171 231.562 118.66C230.008 116.399 231.096 113.193 229.976 110.701C229.615 109.974 229.108 109.329 228.488 108.804C227.868 108.279 227.147 107.885 226.37 107.648C224.808 107.185 223.159 107.088 221.554 107.367C220.386 107.516 219.247 107.835 218.171 108.312C217.865 108.151 217.519 108.077 217.174 108.102C216.55 108.174 215.967 108.445 215.511 108.875C215.055 109.298 214.628 109.75 214.232 110.229C213.503 111.034 212.684 111.749 211.968 112.56C211.22 113.348 210.685 114.313 210.414 115.364C210.278 115.896 210.279 116.453 210.415 116.984C210.551 117.516 210.819 118.004 211.194 118.405C211.372 118.575 211.569 118.723 211.783 118.846C211.908 118.958 212.028 119.078 212.141 119.203C212.35 119.402 212.498 119.656 212.568 119.935C212.638 120.214 212.627 120.508 212.537 120.781C212.371 121.039 212.171 121.273 211.942 121.477C211.832 121.582 211.752 121.714 211.711 121.86C211.669 122.006 211.667 122.161 211.706 122.308C211.775 122.445 211.876 122.563 212 122.653C214.705 125.01 217.692 127.182 221.145 128.159C224.598 129.136 228.608 128.74 231.332 126.402C231.592 126.221 231.81 125.988 231.973 125.717C232.136 125.447 232.24 125.145 232.279 124.831C232.279 123.777 231.044 122.883 231.358 121.873C231.543 121.286 232.189 120.96 232.304 120.321Z" fill="#2E110D"/>
<path d="M225.711 130.784C225.679 130.65 225.641 130.529 225.602 130.401C224.905 128.089 224.835 124.013 225.071 121.631C223.223 121.586 220.915 122.697 219.098 122.359C218.502 125.472 217.576 128.512 216.336 131.429C216.075 131.58 215.825 131.749 215.588 131.934C214.247 133.131 213.199 134.619 212.524 136.284C212.051 137.274 211.629 138.475 212.205 139.407C212.455 139.748 212.795 140.014 213.186 140.176C213.577 140.339 214.005 140.391 214.424 140.327C215.262 140.186 216.063 139.875 216.777 139.414C220.69 137.288 224.186 134.475 227.099 131.11L225.711 130.784Z" fill="#FAD1A5"/>
<path d="M224.4 121.663C222.686 121.829 220.697 122.653 219.098 122.359C218.553 125.153 217.755 127.892 216.713 130.541C221.145 129.181 224.764 126.498 224.4 121.663Z" fill="#2E110D"/>
<path d="M224.726 121.899C225.762 118.91 225.288 114.662 222.743 112.784C221.336 111.755 218.484 111.315 216.745 111.43C215.456 111.609 214.269 112.23 213.387 113.186C212.69 113.87 213.458 115.358 212.991 116.22C212.434 117.242 211.488 117.715 211.29 119.069C211.056 120.849 211.262 122.658 211.891 124.339C212.048 124.985 212.115 125.649 212.089 126.313C212.124 126.657 212.23 126.99 212.4 127.291C212.57 127.593 212.801 127.855 213.078 128.063C213.355 128.271 213.672 128.419 214.01 128.498C214.347 128.577 214.697 128.586 215.037 128.523C216.811 128.281 218.537 127.766 220.153 126.996C222.243 125.904 223.867 124.094 224.726 121.899Z" fill="#FAD1A5"/>
<path d="M218.599 110.101C218.246 110.724 218.046 111.422 218.016 112.137C217.986 112.852 218.127 113.565 218.427 114.215C219.046 115.508 220.022 116.599 221.241 117.357C221.736 117.611 222.15 117.998 222.436 118.475C222.718 119.114 222.436 119.829 222.309 120.506C221.992 121.932 222.208 123.424 222.914 124.702C223.621 125.98 224.77 126.957 226.146 127.45C227.911 124.003 228.672 120.129 228.339 116.271C228.274 114.637 227.778 113.048 226.9 111.666C226.054 110.514 224.866 109.658 223.504 109.22C222.149 108.784 220.712 108.664 219.303 108.868L218.599 110.101Z" fill="#2E110D"/>
<path d="M212.735 121.918C212.512 121.931 212.29 121.885 212.09 121.785C211.89 121.686 211.72 121.535 211.597 121.35C211.49 121.152 211.438 120.93 211.444 120.706C211.451 120.481 211.517 120.263 211.635 120.072C211.842 119.733 212.119 119.441 212.447 119.216L212.677 119.05C212.929 118.873 213.166 118.677 213.387 118.462C213.654 118.216 213.832 117.888 213.892 117.53C213.89 117.249 213.819 116.973 213.686 116.725C213.552 116.478 213.359 116.267 213.125 116.112C213.085 116.07 213.061 116.016 213.058 115.958C213.054 115.901 213.071 115.844 213.106 115.798C213.141 115.752 213.19 115.72 213.247 115.707C213.303 115.694 213.362 115.702 213.413 115.729C213.717 115.93 213.965 116.206 214.132 116.53C214.299 116.855 214.379 117.216 214.366 117.581C214.299 118.049 214.073 118.479 213.726 118.801C213.487 119.035 213.228 119.249 212.952 119.44L212.729 119.606C212.456 119.792 212.223 120.031 212.044 120.308C211.972 120.429 211.93 120.565 211.922 120.705C211.914 120.846 211.941 120.986 212 121.113C212.151 121.278 212.35 121.391 212.57 121.436C212.789 121.481 213.017 121.455 213.221 121.362C213.251 121.353 213.282 121.349 213.314 121.351C213.345 121.353 213.375 121.362 213.403 121.376C213.431 121.39 213.456 121.41 213.477 121.434C213.497 121.458 213.512 121.486 213.522 121.516C213.533 121.545 213.537 121.576 213.536 121.608C213.534 121.639 213.527 121.669 213.513 121.697C213.499 121.726 213.48 121.751 213.456 121.771C213.432 121.791 213.404 121.807 213.375 121.816C213.168 121.885 212.952 121.92 212.735 121.918Z" fill="#2E110D"/>
<path d="M219.341 116.725H219.264C218.253 116.397 217.209 116.183 216.15 116.086C216.088 116.078 216.031 116.047 215.992 115.998C215.952 115.949 215.933 115.887 215.939 115.824C215.94 115.793 215.948 115.762 215.962 115.734C215.976 115.706 215.996 115.681 216.02 115.66C216.044 115.64 216.072 115.625 216.102 115.616C216.132 115.607 216.163 115.604 216.195 115.607C217.28 115.706 218.352 115.92 219.392 116.246C219.451 116.259 219.502 116.294 219.536 116.343C219.57 116.392 219.584 116.453 219.575 116.512C219.566 116.571 219.535 116.625 219.488 116.662C219.441 116.699 219.382 116.717 219.322 116.712L219.341 116.725Z" fill="#2E110D"/>
<path d="M213.65 116.131H213.605L213.113 116.029C213.082 116.022 213.053 116.01 213.027 115.993C213.001 115.975 212.979 115.953 212.962 115.927C212.944 115.9 212.933 115.871 212.927 115.841C212.921 115.81 212.921 115.778 212.927 115.748C212.934 115.717 212.946 115.688 212.963 115.662C212.981 115.636 213.003 115.614 213.03 115.597C213.056 115.58 213.085 115.568 213.116 115.562C213.146 115.556 213.178 115.556 213.209 115.562L213.701 115.658C213.762 115.672 213.816 115.709 213.85 115.761C213.885 115.814 213.898 115.878 213.887 115.939C213.876 115.994 213.846 116.043 213.803 116.078C213.76 116.113 213.706 116.132 213.65 116.131Z" fill="#2E110D"/>
<path d="M217.397 117.932C217.397 118.175 217.397 118.488 217.148 118.571C217.074 118.582 216.999 118.57 216.932 118.539C216.865 118.507 216.809 118.456 216.771 118.392C216.7 118.259 216.655 118.114 216.636 117.964C216.591 117.696 216.579 117.325 216.834 117.242C216.921 117.219 217.012 117.227 217.093 117.263C217.175 117.299 217.241 117.361 217.282 117.44C217.357 117.594 217.397 117.762 217.397 117.932Z" fill="#2E110D"/>
<path d="M213.432 117.325C213.362 117.523 213.221 117.76 212.978 117.709C212.905 117.69 212.838 117.652 212.785 117.598C212.731 117.544 212.694 117.476 212.678 117.402C212.656 117.269 212.667 117.134 212.71 117.006C212.754 116.776 212.876 116.489 213.151 116.521C213.237 116.539 213.317 116.581 213.379 116.644C213.442 116.706 213.485 116.786 213.503 116.872C213.521 117.027 213.497 117.184 213.432 117.325Z" fill="#2E110D"/>
<path d="M213.726 124.275C213.272 124.284 212.826 124.155 212.447 123.905C212.395 123.869 212.359 123.814 212.347 123.752C212.335 123.69 212.348 123.625 212.383 123.573C212.419 123.52 212.474 123.484 212.537 123.472C212.599 123.46 212.663 123.473 212.716 123.509C213.066 123.728 213.478 123.826 213.889 123.785C214.3 123.745 214.686 123.569 214.986 123.285C215.03 123.239 215.091 123.213 215.154 123.212C215.218 123.211 215.279 123.235 215.325 123.279C215.371 123.323 215.397 123.383 215.399 123.447C215.4 123.51 215.376 123.572 215.332 123.617C214.904 124.038 214.327 124.275 213.726 124.275Z" fill="#2E110D"/>
</svg>
