<svg width="18" height="18" viewBox="0 0 18 18" fill="none" xmlns="http://www.w3.org/2000/svg">
<path d="M10.2416 12.3518C10.2177 12.3396 10.1934 12.3273 10.169 12.315C10.0481 12.2538 9.9226 12.1904 9.80398 12.1131M10.2416 12.3518L6.60796 9.20224C7.60257 10.4289 8.65023 11.3804 9.80398 12.1131M10.2416 12.3518C10.3742 12.4182 10.4969 12.4811 10.6063 12.5508L10.2416 12.3518ZM9.80398 12.1131L9.72213 12.2388C9.72237 12.239 9.72261 12.2391 9.72285 12.2393M9.80398 12.1131L9.72356 12.2398C9.72332 12.2396 9.72308 12.2395 9.72285 12.2393M9.72285 12.2393C9.84879 12.3212 9.98267 12.3889 10.1034 12.4499C10.1273 12.462 10.1506 12.4738 10.1733 12.4854L10.1745 12.486C10.3073 12.5524 10.4236 12.6123 10.5258 12.6773L10.5323 12.6815L10.5392 12.6849C10.5416 12.6861 10.544 12.6875 10.5501 12.6909L10.5509 12.6914C10.5562 12.6945 10.5648 12.6993 10.5748 12.7044M9.72285 12.2393L10.5748 12.7044M10.5748 12.7044C10.7028 12.7702 10.8321 12.8035 10.9644 12.8035C11.2947 12.8035 11.5053 12.5933 11.5644 12.5342L12.8044 11.2942C12.9786 11.12 13.1515 11.0431 13.305 11.0431C13.495 11.0431 13.6634 11.1625 13.7819 11.2902L13.7818 11.2903L13.7859 11.2943L15.7849 13.2901L10.5748 12.7044ZM4.17521 11.7317L4.17546 11.732C5.76699 13.6345 7.68354 15.133 9.87116 16.1934L9.87236 16.194C10.7014 16.5869 11.8268 17.0616 13.0865 17.1431L13.0865 17.1431L13.0896 17.1432L13.0997 17.1437C13.1719 17.1468 13.245 17.15 13.3216 17.15C14.1864 17.15 14.8894 16.8492 15.4589 16.2318C15.4617 16.229 15.4663 16.2242 15.4711 16.2186C15.4746 16.2146 15.48 16.2081 15.4858 16.1995C15.6578 15.9929 15.852 15.8046 16.0625 15.6004C16.0776 15.5858 16.0927 15.5711 16.1079 15.5563C16.2643 15.4066 16.425 15.2493 16.5794 15.0881C16.9548 14.6969 17.1509 14.2432 17.15 13.7834C17.1491 13.3232 16.9508 12.8746 16.5706 12.4944L14.5791 10.5029C14.2173 10.1274 13.7758 9.92087 13.305 9.92087C12.8341 9.92087 12.3897 10.1275 12.0187 10.4986L10.9117 11.6055C10.8317 11.5625 10.7523 11.5228 10.6784 11.4858L10.6767 11.485C10.5439 11.4186 10.4276 11.3587 10.3255 11.2937L10.3253 11.2936C9.26044 10.6174 8.29103 9.73405 7.36148 8.59445C6.92339 8.03985 6.62399 7.57343 6.41103 7.10832C6.69627 6.84564 6.96467 6.57386 7.2225 6.30997L7.223 6.30945C7.32146 6.20771 7.42336 6.10581 7.52629 6.00287C7.90607 5.6231 8.12057 5.17234 8.12057 4.70327C8.12057 4.23486 7.90994 3.78392 7.52609 3.40347C7.52599 3.40338 7.5259 3.40328 7.5258 3.40319L6.53831 2.41569C6.42618 2.30356 6.32021 2.19447 6.21049 2.08152L6.20171 2.07249C6.20169 2.07247 6.20168 2.07246 6.20166 2.07244C5.98312 1.84727 5.75258 1.61333 5.52453 1.40196C5.15925 1.04442 4.7222 0.85 4.25404 0.85C3.78829 0.85 3.34811 1.04513 2.97027 1.40531L2.97024 1.40528L2.9677 1.40782L1.72775 2.64777C1.252 3.12352 0.981148 3.70361 0.925117 4.37248L0.925066 4.37311C0.859842 5.19357 1.01184 6.0581 1.39474 7.08931C1.98192 8.68303 2.86689 10.1597 4.17521 11.7317ZM5.31093 2.76489C5.34032 2.79477 5.37 2.82494 5.40004 2.85543L15.785 13.2902C15.965 13.4701 16.0382 13.6409 16.0369 13.7991C16.0356 13.9585 15.9586 14.1367 15.7729 14.33L15.7714 14.3316C15.6351 14.4776 15.4917 14.6178 15.3364 14.7665L15.3356 14.7673C15.3225 14.7799 15.3094 14.7927 15.2962 14.8055C15.0779 15.0174 14.846 15.2425 14.6346 15.4951C14.2838 15.872 13.871 16.0477 13.3249 16.0477C13.2737 16.0477 13.2183 16.0447 13.1617 16.0413C12.1047 15.9736 11.1155 15.5602 10.3596 15.2005C8.31715 14.212 6.52405 12.8099 5.03575 11.0292C3.80768 9.55093 2.98526 8.17963 2.44194 6.71332L2.44175 6.71282C2.10512 5.81406 1.98244 5.10443 2.03301 4.46732C2.0698 4.0613 2.22379 3.72642 2.51676 3.43346L3.74912 2.2011C3.92086 2.03562 4.09717 1.96227 4.25404 1.96227C4.40586 1.96227 4.57501 2.03407 4.74382 2.20584L4.7437 2.20596L4.74893 2.2108C4.93872 2.38643 5.11864 2.56937 5.31093 2.76489Z" fill="#1394CC" stroke="#1394CC" stroke-width="0.3"/>
</svg>
