<svg width="13" height="16" viewBox="0 0 13 16" fill="none" xmlns="http://www.w3.org/2000/svg">
<path fill-rule="evenodd" clip-rule="evenodd" d="M6.5 1.75C3.94206 1.75 1.78571 3.94242 1.78571 6.75002C1.78571 8.15194 2.40694 9.58843 3.26285 10.8907C4.11349 12.185 5.15778 13.2891 5.91708 14.013C6.24858 14.329 6.75142 14.329 7.08292 14.013C7.84222 13.2891 8.88651 12.185 9.73715 10.8907C10.5931 9.58843 11.2143 8.15194 11.2143 6.75002C11.2143 3.94242 9.05794 1.75 6.5 1.75ZM0.5 6.75002C0.5 3.34439 3.1406 0.5 6.5 0.5C9.8594 0.5 12.5 3.34439 12.5 6.75002C12.5 8.49256 11.7375 10.1686 10.8206 11.5638C9.89833 12.9669 8.78055 14.1452 7.98311 14.9055C7.15162 15.6982 5.84838 15.6982 5.01689 14.9055C4.21945 14.1452 3.10167 12.9669 2.17943 11.5638C1.26247 10.1686 0.5 8.49256 0.5 6.75002ZM6.5 5.08688C5.78992 5.08688 5.21429 5.64653 5.21429 6.33688C5.21429 7.02724 5.78992 7.58689 6.5 7.58689C7.21008 7.58689 7.78571 7.02724 7.78571 6.33688C7.78571 5.64653 7.21008 5.08688 6.5 5.08688ZM3.92857 6.33688C3.92857 4.95617 5.07984 3.83688 6.5 3.83688C7.92016 3.83688 9.07143 4.95617 9.07143 6.33688C9.07143 7.7176 7.92016 8.83689 6.5 8.83689C5.07984 8.83689 3.92857 7.7176 3.92857 6.33688Z" fill="#184457"/>
</svg>
