<svg width="199" height="145" viewBox="0 0 199 145" fill="none" xmlns="http://www.w3.org/2000/svg">
<path d="M99.7471 36.6039L54.2817 24.4253C52.4296 23.9217 50.5499 25.0287 50.0564 26.8638C49.5634 28.7024 50.6564 30.5956 52.4949 31.0887L97.9603 43.2673C98.2603 43.3466 98.5603 43.3844 98.8535 43.3844C100.378 43.3844 101.771 42.3669 102.182 40.8288C102.682 38.9872 101.589 37.0935 99.7471 36.6039Z" fill="#184457"/>
<path d="M109.918 41.6738C110.046 41.4944 110.153 41.2979 110.315 41.146C110.156 41.3013 110.049 41.4944 109.918 41.6738Z" fill="#184457"/>
<path d="M109.553 42.2153C109.473 42.3914 109.452 42.5879 109.404 42.7809C109.452 42.5913 109.473 42.3948 109.553 42.2153Z" fill="#184457"/>
<path d="M111.456 40.4324C111.208 40.5253 111.004 40.6806 110.791 40.8257C111.004 40.684 111.208 40.5287 111.456 40.4324Z" fill="#184457"/>
<path d="M109.418 142.659C108.804 140.855 109.766 138.896 111.57 138.282L116.133 136.726V46.089L113.815 46.8926C112.008 47.5202 110.049 46.5651 109.428 44.7647C109.287 44.3544 109.245 43.9369 109.259 43.5266C109.259 43.5643 109.238 43.5991 109.238 43.6369V137.11L37.333 118.76V25.0258L35.6497 25.5778L30.4349 30.2685V121.437C30.4349 123.014 31.5042 124.386 33.0321 124.78L111.836 144.888C112.119 144.96 112.405 144.995 112.688 144.995C111.246 144.997 109.904 144.093 109.418 142.659Z" fill="#184457"/>
<path d="M112.681 144.997C113.064 144.997 113.44 144.935 113.799 144.811H113.795C113.426 144.939 113.05 144.997 112.681 144.997Z" fill="#184457"/>
<path d="M31.9456 19.7485C32.1802 19.5864 32.4144 19.4209 32.6839 19.3208C32.4076 19.4205 32.1802 19.583 31.9456 19.7485Z" fill="#184457"/>
<path d="M176.547 20.8139C176.505 20.7413 176.433 20.7002 176.388 20.6344C176.726 21.1381 176.964 21.7138 176.999 22.352C177.078 23.8833 176.133 25.287 174.685 25.7872L171.98 26.7254L189.96 58.1257L140.66 75.2021L126.88 55.332C125.794 53.7731 123.642 53.3764 122.079 54.4664C120.514 55.5493 120.127 57.7018 121.21 59.2675L136.479 81.2863C137.138 82.2312 138.207 82.7692 139.314 82.7692C139.69 82.7692 140.073 82.7107 140.442 82.5796L168.197 72.9638V68.1178C168.197 66.2105 169.742 64.6685 171.646 64.6685C173.55 64.6685 175.095 66.2101 175.095 68.1178V70.5737L196.148 63.2823C197.118 62.9441 197.89 62.1957 198.249 61.2303C198.607 60.2714 198.521 59.1987 198.011 58.3056L176.547 20.8139Z" fill="#184457"/>
<path d="M175.512 19.7175C175.629 19.8003 175.726 19.9004 175.829 19.9933C175.722 19.9 175.626 19.7965 175.512 19.7175Z" fill="#184457"/>
<path d="M174.405 19.1965C174.509 19.2241 174.598 19.2827 174.698 19.3175C174.595 19.2827 174.509 19.2241 174.405 19.1965Z" fill="#184457"/>
<path d="M168.2 118.971L116.13 136.727V141.545C116.13 142.611 115.637 143.618 114.795 144.27C114.491 144.505 114.153 144.684 113.798 144.808L172.76 124.7C174.156 124.224 175.094 122.91 175.094 121.437V70.5735L168.196 72.9636V118.97H168.2V118.971Z" fill="#184457"/>
<path d="M116.13 141.548V136.729L111.567 138.285C109.763 138.899 108.801 140.858 109.415 142.662C109.904 144.097 111.243 145 112.678 145C113.047 145 113.423 144.942 113.792 144.814H113.795C114.15 144.693 114.489 144.514 114.792 144.276C115.637 143.617 116.13 142.61 116.13 141.548Z" fill="#184457"/>
<path d="M171.649 64.6687C169.745 64.6687 168.2 66.2102 168.2 68.1179V72.964L175.098 70.5738V68.1179C175.098 66.2106 173.553 64.6687 171.649 64.6687Z" fill="#184457"/>
<path d="M175.829 19.9968C176.036 20.1831 176.226 20.3936 176.388 20.635C176.226 20.3936 176.043 20.1865 175.829 19.9968Z" fill="#184457"/>
<path d="M31.9455 19.7485C31.8246 19.8313 31.6799 19.869 31.573 19.9658L1.67689 46.8578C0.445537 47.9614 0.173129 49.7927 1.03193 51.2069C1.67349 52.2656 2.80471 52.8694 3.98429 52.8694C4.38442 52.8694 4.79133 52.7968 5.18806 52.6555L23.4716 45.8471C25.2584 45.1813 26.1651 43.1981 25.4998 41.4117C24.8341 39.6216 22.8475 38.725 21.0645 39.3801L19.7712 39.863L30.4358 30.271V22.5278C30.4278 21.3558 31.0524 20.3693 31.9455 19.7485Z" fill="#184457"/>
<path d="M174.698 19.3174C174.985 19.4175 175.26 19.5414 175.512 19.7175C175.264 19.5448 174.988 19.4205 174.698 19.3174Z" fill="#184457"/>
<path d="M37.3261 22.5282V25.0286L92.1866 7.0247L161.167 23.1731L111.55 40.3806C111.515 40.3908 111.491 40.4222 111.457 40.4358C111.839 40.2911 112.246 40.191 112.678 40.191C114.582 40.191 116.127 41.7325 116.127 43.6402V46.0923L171.977 26.7259L170.556 24.2462C169.611 22.5939 170.184 20.4834 171.836 19.5385C172.647 19.0798 173.564 18.9903 174.402 19.2003C174.378 19.1935 174.361 19.1795 174.337 19.1727L92.8141 0.0889148C92.1968 -0.0523808 91.5518 -0.0248004 90.9518 0.168261L32.8009 19.2516C32.7559 19.2657 32.7249 19.3034 32.6799 19.3208C33.0559 19.1795 33.4526 19.0794 33.8769 19.0794C35.7842 19.0794 37.3261 20.6209 37.3261 22.5282Z" fill="#184457"/>
<path d="M110.315 41.146C110.453 41.0149 110.632 40.9321 110.791 40.8252C110.632 40.9321 110.453 41.0149 110.315 41.146Z" fill="#184457"/>
<path d="M109.252 43.5261C109.259 43.2639 109.339 43.0258 109.404 42.781C109.339 43.0297 109.263 43.2673 109.252 43.5261Z" fill="#184457"/>
<path d="M109.918 41.6738C109.791 41.8533 109.642 42.0154 109.552 42.2152C109.646 42.0154 109.794 41.8533 109.918 41.6738Z" fill="#184457"/>
<path d="M37.3262 25.0252V22.5248C37.3262 20.6175 35.7808 19.0756 33.877 19.0756C33.4526 19.0756 33.0559 19.1757 32.68 19.317C32.411 19.4171 32.1763 19.5826 31.9417 19.7447C31.0485 20.3689 30.4277 21.352 30.4277 22.5248V30.268L35.6425 25.5773L37.3262 25.0252Z" fill="#184457"/>
<path d="M112.681 40.1875C112.246 40.1875 111.839 40.2876 111.46 40.4323C111.211 40.5291 111.004 40.6805 110.794 40.8257C110.635 40.9326 110.46 41.0153 110.318 41.1464C110.156 41.3017 110.049 41.4948 109.921 41.6743C109.793 41.8538 109.649 42.0159 109.555 42.2157C109.476 42.3952 109.455 42.5916 109.407 42.7813C109.341 43.0261 109.266 43.2642 109.255 43.5264C109.241 43.9367 109.279 44.3542 109.424 44.7645C110.048 46.5649 112.007 47.5204 113.811 46.8925L116.129 46.0888V43.6367C116.13 41.729 114.585 40.1875 112.681 40.1875Z" fill="#184457"/>
<path d="M171.839 19.5347C170.187 20.4796 169.614 22.5906 170.559 24.2428L171.98 26.7225L174.684 25.7843C176.133 25.2807 177.078 23.8805 176.998 22.3491C176.964 21.711 176.726 21.1386 176.388 20.6315C176.226 20.3901 176.039 20.1796 175.829 19.9933C175.725 19.8966 175.625 19.7969 175.512 19.7175C175.26 19.5453 174.984 19.4176 174.698 19.3174C174.598 19.283 174.512 19.2245 174.405 19.1965C173.567 18.9826 172.649 19.0722 171.839 19.5347Z" fill="#184457"/>
</svg>
