<svg width="55" height="34" viewBox="0 0 55 34" fill="none" xmlns="http://www.w3.org/2000/svg">
<rect width="55" height="34" rx="14" fill="#184457" fill-opacity="0.1"/>
<path fill-rule="evenodd" clip-rule="evenodd" d="M23.3871 12.7552C23.3871 10.4051 25.2285 8.5 27.5 8.5C29.7715 8.5 31.6129 10.4051 31.6129 12.7552C31.6129 15.1053 29.7715 17.0105 27.5 17.0105C25.2285 17.0105 23.3871 15.1053 23.3871 12.7552ZM27.5 10.0019C26.0302 10.0019 24.8387 11.2346 24.8387 12.7552C24.8387 14.2759 26.0302 15.5086 27.5 15.5086C28.9698 15.5086 30.1613 14.2759 30.1613 12.7552C30.1613 11.2346 28.9698 10.0019 27.5 10.0019Z" fill="#184457"/>
<path fill-rule="evenodd" clip-rule="evenodd" d="M23.629 20.0142C22.4265 20.0142 21.4516 21.0228 21.4516 22.267V23.4567C21.4516 23.4748 21.4643 23.4903 21.4816 23.4932C25.4675 24.1665 29.5325 24.1665 33.5184 23.4932C33.5357 23.4903 33.5484 23.4748 33.5484 23.4567V22.267C33.5484 21.0228 32.5735 20.0142 31.371 20.0142H31.0411C31.0156 20.0142 30.9902 20.0184 30.966 20.0265L30.1284 20.3095C28.4205 20.8865 26.5795 20.8865 24.8716 20.3095L24.034 20.0265C24.0098 20.0184 23.9844 20.0142 23.9589 20.0142H23.629ZM20 22.267C20 20.1933 21.6248 18.5123 23.629 18.5123H23.9589C24.1374 18.5123 24.3149 18.5415 24.4846 18.5989L25.3222 18.8818C26.7373 19.3599 28.2627 19.3599 29.6778 18.8818L30.5154 18.5989C30.6851 18.5415 30.8626 18.5123 31.0411 18.5123H31.371C33.3752 18.5123 35 20.1933 35 22.267V23.4567C35 24.2109 34.4717 24.8539 33.7523 24.9754C29.6115 25.6749 25.3885 25.6749 21.2477 24.9754C20.5283 24.8539 20 24.2109 20 23.4567V22.267Z" fill="#184457"/>
</svg>
