<svg width="17" height="16" viewBox="0 0 17 16" fill="none" xmlns="http://www.w3.org/2000/svg">
<path d="M9.14427 11.0447C9.26279 11.1218 9.38882 11.1855 9.50199 11.2427C9.52433 11.254 9.54617 11.2651 9.56735 11.2759L9.56859 11.2765C9.69311 11.3388 9.80175 11.3948 9.89704 11.4554L9.90357 11.4595L9.91049 11.463L9.92025 11.4684C9.9251 11.4712 9.93332 11.4759 9.94307 11.4808C10.0645 11.5434 10.1874 11.5752 10.3133 11.5752C10.627 11.5752 10.8268 11.3755 10.8824 11.3199L12.0449 10.1575C12.2071 9.99527 12.3669 9.92476 12.5076 9.92476C12.6818 9.92476 12.8374 10.0345 12.9478 10.1535L12.9478 10.1535L12.9518 10.1575L14.8259 12.0286L14.826 12.0287C14.9935 12.1962 15.0605 12.354 15.0594 12.4991C15.0582 12.6454 14.9875 12.8102 14.8145 12.9904L14.813 12.9919C14.6854 13.1286 14.5511 13.2599 14.4055 13.3993L14.4048 13.4001C14.3925 13.412 14.3801 13.424 14.3678 13.436C14.1632 13.6346 13.9456 13.8458 13.7471 14.0829C13.4202 14.4341 13.0357 14.5978 12.5263 14.5978C12.4786 14.5978 12.4269 14.595 12.3738 14.5919C11.3848 14.5285 10.4588 14.1417 9.75033 13.8045C7.83681 12.8784 6.15686 11.5648 4.76243 9.89646C3.61164 8.51118 2.84121 7.22647 2.33228 5.85298L2.3321 5.85248C2.01681 5.0107 1.90221 4.34687 1.94946 3.7514C1.98377 3.37295 2.12719 3.06107 2.40026 2.788L3.55554 1.63272C3.71526 1.47885 3.87831 1.4115 4.02233 1.4115C4.16152 1.4115 4.31782 1.47729 4.47482 1.63705L4.4747 1.63717L4.47992 1.642C4.65768 1.8065 4.82618 1.97782 5.00647 2.16113C5.03401 2.18914 5.06184 2.21743 5.09001 2.24602C5.14317 2.30074 5.19704 2.3554 5.25086 2.40998L5.25185 2.41099C5.30559 2.4655 5.35928 2.51997 5.41292 2.57514L5.41291 2.57515L5.4144 2.57664L6.34064 3.50287C6.51757 3.6798 6.58887 3.83971 6.58887 3.97804C6.58887 4.11636 6.51757 4.27627 6.34064 4.4532C6.29206 4.50177 6.24356 4.55105 6.19555 4.59984L6.19526 4.60013C6.14701 4.64916 6.09926 4.69768 6.05157 4.74536L6.05101 4.74593C6.02937 4.7678 6.00786 4.78956 5.98647 4.8112C5.72086 5.07989 5.47231 5.33132 5.20035 5.57211L5.20017 5.57191L5.19372 5.57836L5.17818 5.59389C5.02784 5.74424 4.95645 5.90022 4.93761 6.05347C4.91924 6.2029 4.95269 6.33585 4.98654 6.43741L4.98654 6.43741C4.98951 6.44632 4.99246 6.45369 4.99401 6.45757L4.99423 6.45811C4.99586 6.46218 4.99587 6.4623 4.99586 6.46227L4.99548 6.46239L4.99968 6.47248C5.24558 7.06327 5.58627 7.6222 6.11173 8.28296L6.11172 8.28296L6.11262 8.28407C7.05366 9.44469 8.04744 10.3481 9.14427 11.0447ZM9.14427 11.0447C9.14403 11.0446 9.14379 11.0444 9.14355 11.0443L9.2254 10.9186L9.14499 11.0452C9.14475 11.045 9.14451 11.0449 9.14427 11.0447ZM3.94123 10.5669L3.94147 10.5672C5.43438 12.3518 7.23219 13.7576 9.2843 14.7523L9.28549 14.7528C10.0629 15.1213 11.1193 15.567 12.3021 15.6435L12.3021 15.6435L12.3053 15.6436L12.3148 15.6441C12.3824 15.647 12.4512 15.65 12.5232 15.65C13.3364 15.65 13.998 15.367 14.5337 14.7863C14.5364 14.7836 14.5408 14.779 14.5455 14.7736C14.5488 14.7697 14.554 14.7634 14.5596 14.7551C14.7205 14.5621 14.9021 14.3859 15.0994 14.1945C15.1135 14.1809 15.1276 14.1671 15.1418 14.1533C15.2885 14.0129 15.4392 13.8653 15.5842 13.7141C15.9375 13.3459 16.1225 12.9183 16.1217 12.4844C16.1208 12.0502 15.9337 11.6273 15.5758 11.2694L13.7088 9.4024C13.3681 9.04887 12.9518 8.85394 12.5076 8.85394C12.0632 8.85394 11.6443 9.049 11.295 9.39829L10.2622 10.4311C10.1892 10.392 10.1169 10.3558 10.0495 10.3221L10.0478 10.3213C9.92325 10.259 9.81461 10.203 9.71932 10.1424L9.71919 10.1423C8.72186 9.50905 7.81377 8.68162 6.94287 7.61392C6.53443 7.09685 6.25493 6.66192 6.05587 6.22882C6.32162 5.98382 6.57176 5.7305 6.81197 5.48464L6.81247 5.48413C6.90471 5.38881 7.00019 5.29333 7.0967 5.19682C7.4541 4.83942 7.65659 4.41457 7.65659 3.97182C7.65659 3.52971 7.45775 3.10466 7.09647 2.74659C7.09638 2.7465 7.09629 2.74641 7.09621 2.74633L6.17046 1.82058C6.06543 1.71555 5.96616 1.61336 5.86332 1.50749L5.855 1.49893C5.85499 1.49891 5.85497 1.4989 5.85496 1.49888C5.65009 1.2878 5.43384 1.06836 5.21989 0.870049C4.87595 0.53344 4.46397 0.35 4.02233 0.35C3.5829 0.35 3.168 0.534144 2.81233 0.873193L2.8123 0.873162L2.80976 0.875699L1.64731 2.03815C1.19974 2.48572 0.944843 3.03163 0.892127 3.66091L0.892076 3.66155C0.830788 4.43249 0.97367 5.24441 1.33297 6.21203C1.88388 7.7073 2.71414 9.09256 3.94123 10.5669Z" fill="#184457" stroke="#184457" stroke-width="0.3"/>
</svg>
