<svg width="13" height="10" viewBox="0 0 13 10" fill="none" xmlns="http://www.w3.org/2000/svg">
<path fill-rule="evenodd" clip-rule="evenodd" d="M5.03033 0.21967C5.32322 0.512563 5.32322 0.987437 5.03033 1.28033L3.06066 3.25H6.75C9.92564 3.25 12.5 5.82436 12.5 9V9.25C12.5 9.66421 12.1642 10 11.75 10C11.3358 10 11 9.66421 11 9.25V9C11 6.65279 9.09721 4.75 6.75 4.75H3.06066L5.03033 6.71967C5.32322 7.01256 5.32322 7.48744 5.03033 7.78033C4.73744 8.07322 4.26256 8.07322 3.96967 7.78033L0.71967 4.53033C0.426777 4.23744 0.426777 3.76256 0.71967 3.46967L3.96967 0.21967C4.26256 -0.0732233 4.73744 -0.0732233 5.03033 0.21967Z" fill="#184457"/>
</svg>
