<svg width="167" height="34" viewBox="0 0 167 34" fill="none" xmlns="http://www.w3.org/2000/svg">
<rect width="167" height="34" rx="14" fill="#FF6666" fill-opacity="0.1"/>
<path d="M22.1354 12.9355V20.1672C22.1354 21.3249 21.1897 22.2634 20.0232 22.2634H15.9768C14.8103 22.2634 13.8646 21.3249 13.8646 20.1672V12.9355" stroke="#FF6666" stroke-width="0.944444" stroke-linecap="round"/>
<path d="M18 15.7339V19.8381" stroke="#FF6666" stroke-width="0.944444" stroke-linecap="round"/>
<path d="M16.1203 15.7339V19.8381" stroke="#FF6666" stroke-width="0.944444" stroke-linecap="round"/>
<path d="M19.8797 15.7339V19.8381" stroke="#FF6666" stroke-width="0.944444" stroke-linecap="round"/>
<path d="M16.1203 12.9355V11.982C16.1203 11.4783 16.5318 11.07 17.0391 11.07H18.9608C19.4682 11.07 19.8797 11.4783 19.8797 11.982V12.9355" stroke="#FF6666" stroke-width="0.944444" stroke-linecap="round"/>
<path d="M23.2632 12.9355H12.7368" stroke="#FF6666" stroke-width="0.944444" stroke-linecap="round"/>
<path d="M41.9631 16.9091C41.9631 13.6527 40.0142 11.679 37.3793 11.679C34.7344 11.679 32.7905 13.6527 32.7905 16.9091C32.7905 20.1605 34.7344 22.1392 37.3793 22.1392C40.0142 22.1392 41.9631 20.1655 41.9631 16.9091ZM40.4418 16.9091C40.4418 19.3899 39.1293 20.7372 37.3793 20.7372C35.6243 20.7372 34.3168 19.3899 34.3168 16.9091C34.3168 14.4283 35.6243 13.081 37.3793 13.081C39.1293 13.081 40.4418 14.4283 40.4418 16.9091ZM49.809 14.3636H48.3573V18.1669C47.8552 18.3011 47.3481 18.3807 46.7664 18.3807C45.7522 18.3807 45.1258 17.9233 45.1258 16.8445V14.3487H43.6791V16.8445C43.6791 18.7536 44.8772 19.6634 46.7664 19.6634C47.3431 19.6634 47.8701 19.5838 48.3573 19.4595V22H49.809V14.3636ZM53.1632 19.9169V14.3636H51.7065V22H53.3222L56.6731 16.4418V22H58.1298V14.3636H56.5289L53.1632 19.9169ZM63.265 22.1541C65.0697 22.1541 66.238 21.0703 66.402 19.5838H64.9553C64.7664 20.4091 64.1251 20.8963 63.2749 20.8963C62.0171 20.8963 61.2067 19.8473 61.2067 18.1818C61.2067 16.5462 62.032 15.517 63.2749 15.517C64.2195 15.517 64.7962 16.1136 64.9553 16.8295H66.402C66.243 15.2884 64.9851 14.2642 63.2501 14.2642C61.0974 14.2642 59.7053 15.8849 59.7053 18.2166C59.7053 20.5185 61.0476 22.1541 63.265 22.1541ZM67.3338 15.6463H69.8345V22H71.2862V15.6463H73.7769V14.3636H67.3338V15.6463ZM76.7259 19.9169V14.3636H75.2692V22H76.885L80.2358 16.4418V22H81.6925V14.3636H80.0917L76.7259 19.9169ZM82.664 15.6463H85.1647V22H86.6164V15.6463H89.1072V14.3636H82.664V15.6463ZM92.0561 16.9886V14.3636H90.5994V22H93.9354C95.8047 22 96.8487 20.9162 96.8487 19.4794C96.8487 18.0128 95.8047 16.9886 93.9354 16.9886H92.0561ZM92.0561 18.2713H93.9354C94.7905 18.2713 95.402 18.7884 95.402 19.5241C95.402 20.2202 94.7905 20.7173 93.9354 20.7173H92.0561V18.2713ZM102.061 22H103.547V18.9474H104.512L106.813 22H108.658L105.665 18.0774L108.623 14.3636H106.784L104.263 17.5653H103.547V14.3636H102.061V22ZM112.635 22.1541C114.787 22.1541 116.194 20.5781 116.194 18.2166C116.194 15.8402 114.787 14.2642 112.635 14.2642C110.482 14.2642 109.075 15.8402 109.075 18.2166C109.075 20.5781 110.482 22.1541 112.635 22.1541ZM112.64 20.9062C111.233 20.9062 110.576 19.6783 110.576 18.2116C110.576 16.75 111.233 15.5071 112.64 15.5071C114.037 15.5071 114.693 16.75 114.693 18.2116C114.693 19.6783 114.037 20.9062 112.64 20.9062ZM117.774 24.8636H119.26V20.8118H119.35C119.618 21.299 120.165 22.1491 121.557 22.1491C123.406 22.1491 124.749 20.6676 124.749 18.1967C124.749 15.7209 123.387 14.2642 121.542 14.2642C120.125 14.2642 119.613 15.1293 119.35 15.6016H119.225V14.3636H117.774V24.8636ZM119.23 18.1818C119.23 16.5859 119.926 15.527 121.224 15.527C122.571 15.527 123.247 16.6655 123.247 18.1818C123.247 19.7131 122.551 20.8814 121.224 20.8814C119.946 20.8814 119.23 19.7876 119.23 18.1818ZM125.882 19.9815C125.927 21.3139 127.174 22.1541 128.87 22.1541C130.61 22.1541 131.868 21.2791 131.868 19.8771C131.868 18.8828 131.236 18.147 130.351 18.0874V18.0078C131.152 17.7791 131.704 17.2422 131.704 16.402C131.704 15.1491 130.63 14.2642 128.929 14.2642C127.299 14.2642 126.101 15.1342 126.071 16.4169H127.572C127.602 15.8452 128.194 15.4474 129.004 15.4474C129.804 15.4474 130.272 15.8651 130.272 16.4865C130.272 17.0682 129.854 17.4957 129.014 17.4957H127.771V18.6641H129.014C129.859 18.6641 130.401 19.1314 130.401 19.8224C130.401 20.603 129.71 20.956 128.855 20.956C128.015 20.956 127.448 20.608 127.403 19.9815H125.882ZM134.779 19.9169V14.3636H133.323V22H134.938L138.289 16.4418V22H139.746V14.3636H138.145L134.779 19.9169ZM143.121 14.3636H141.664V22H143.121V18.8281H146.427V22H147.879V14.3636H146.427V17.5405H143.121V14.3636ZM150.454 24.8636C151.682 24.8636 152.457 24.2223 152.9 23.0192L156.057 14.3786L154.451 14.3636L152.517 20.2898H152.437L150.503 14.3636H148.913L151.707 22.0994L151.523 22.6065C151.145 23.6207 150.613 23.7053 149.798 23.4815L149.44 24.6996C149.619 24.7791 150.006 24.8636 150.454 24.8636Z" fill="#FF6666"/>
</svg>
