<svg width="10" height="10" viewBox="0 0 10 10" fill="none" xmlns="http://www.w3.org/2000/svg">
<path fill-rule="evenodd" clip-rule="evenodd" d="M5 1.25C2.92893 1.25 1.25 2.92893 1.25 5C1.25 7.07107 2.92893 8.75 5 8.75C7.07107 8.75 8.75 7.07107 8.75 5C8.75 2.92893 7.07107 1.25 5 1.25ZM0.5 5C0.5 2.51472 2.51472 0.5 5 0.5C7.48528 0.5 9.5 2.51472 9.5 5C9.5 7.48528 7.48528 9.5 5 9.5C2.51472 9.5 0.5 7.48528 0.5 5ZM5 2.375C5.20711 2.375 5.375 2.54289 5.375 2.75V4.625H7.25C7.45711 4.625 7.625 4.79289 7.625 5C7.625 5.20711 7.45711 5.375 7.25 5.375H5C4.79289 5.375 4.625 5.20711 4.625 5V2.75C4.625 2.54289 4.79289 2.375 5 2.375Z" fill="white"/>
</svg>
